<?xml version="1.0" encoding="UTF-8"?>
<svg xmlns="http://www.w3.org/2000/svg" version="1.1" xmlns:xlink="http://www.w3.org/1999/xlink" viewBox="0 0 451.08 429.71">
  <!-- Generator: Adobe Illustrator 29.0.0, SVG Export Plug-In . SVG Version: 2.1.0 Build 186)  -->
  <defs>
    <style>
      .st0, .st1, .st2, .st3, .st4, .st5, .st6 {
        fill: #fff;
      }

      .st0, .st7, .st8, .st9 {
        opacity: .2;
      }

      .st10 {
        opacity: .3;
      }

      .st10, .st11, .st12, .st13 {
        fill: #92e3a9;
      }

      .st14 {
        clip-path: url(#clippath-6);
      }

      .st15 {
        clip-path: url(#clippath-7);
      }

      .st16 {
        clip-path: url(#clippath-4);
      }

      .st17, .st18 {
        fill: #263238;
      }

      .st19, .st20, .st12, .st21, .st8, .st4, .st22, .st23, .st18 {
        stroke-linecap: round;
        stroke-linejoin: round;
      }

      .st19, .st20, .st12, .st21, .st4, .st22, .st23, .st18 {
        stroke: #263238;
      }

      .st19, .st24 {
        fill: #16a34a;
      }

      .st20 {
        fill: #757575;
      }

      .st2 {
        opacity: .5;
      }

      .st25 {
        font-size: 7px;
      }

      .st26 {
        clip-path: url(#clippath-1);
      }

      .st27 {
        clip-path: url(#clippath-5);
      }

      .st28 {
        clip-path: url(#clippath-8);
      }

      .st29 {
        clip-path: url(#clippath-3);
      }

      .st3, .st13 {
        opacity: .4;
      }

      .st21 {
        fill: #bfbfbf;
      }

      .st24 {
        font-family: BritannicBold, 'Britannic Bold';
      }

      .st8 {
        stroke: #fff;
      }

      .st8, .st23 {
        fill: none;
      }

      .st22 {
        fill: #999;
      }

      .st30 {
        font-size: 6.5px;
      }

      .st9 {
        fill-opacity: .7;
      }

      .st5 {
        opacity: .6;
      }

      .st31 {
        clip-path: url(#clippath-2);
      }

      .st6 {
        opacity: .7;
      }

      .st32 {
        clip-path: url(#clippath);
      }
    </style>
    <clipPath id="clippath">
      <polygon class="st4" points="303.4 118.03 303.16 115.86 286.96 117.68 287.45 122.06 288.31 129.84 304.52 128.04 303.4 118.03"/>
    </clipPath>
    <clipPath id="clippath-1">
      <polygon class="st18" points="289.25 142.99 287.39 126.37 296.06 119.8 304.65 118.85 307.1 140.83 289.25 142.99"/>
    </clipPath>
    <clipPath id="clippath-2">
      <path class="st12" d="M182.2,131.61l13.7,44.76,30.77-3.43.67-4.88-7.52-24.82-5.04-16.67c-.66-2.17-2.79-3.59-5.02-3.34l-23.81,2.65c-1.54.17-2.76,1.07-3.41,2.3-.53,1-.68,2.2-.32,3.41Z"/>
    </clipPath>
    <clipPath id="clippath-3">
      <path class="st12" d="M206.99,183.16l30.12-3.35c5.42-.6,9.33-5.49,8.73-10.91v-.05c-.18-1.6-1.63-2.75-3.23-2.58l-43.96,4.9c-1.6.18-2.75,1.62-2.58,3.22v.05c.61,5.42,5.5,9.33,10.92,8.73Z"/>
    </clipPath>
    <clipPath id="clippath-4">
      <polygon class="st4" points="290.88 119.73 290.64 117.56 274.44 119.38 274.93 123.76 275.79 131.54 292 129.73 290.88 119.73"/>
    </clipPath>
    <clipPath id="clippath-5">
      <polygon class="st12" points="276.73 144.69 274.87 128.06 283.54 121.5 292.13 120.54 294.58 142.53 276.73 144.69"/>
    </clipPath>
    <clipPath id="clippath-6">
      <rect class="st12" x="271.71" y="148" width="4.29" height="60.02" transform="translate(-18.02 31.41) rotate(-6.36)"/>
    </clipPath>
    <clipPath id="clippath-7">
      <polygon class="st12" points="297.38 141.84 204.59 152.18 204.96 155.47 311.67 143.58 311.3 140.29 303.5 141.16 297.38 141.84"/>
    </clipPath>
    <clipPath id="clippath-8">
      <polygon class="st12" points="213.4 214.94 206.76 155.29 249.16 150.57 255.8 210.22 251.54 210.69 245.28 154.55 211.41 158.32 217.66 214.47 213.4 214.94"/>
    </clipPath>
  </defs>
  <g id="Background_Simple">
    <g>
      <path class="st11" d="M210.59,9c124.04-11.05,124.24,58.93,180.13,124.13,55.89,65.2,67.85,94.75,46.78,169.91-21.07,75.15-92.06,134.07-179.89,100.69-87.83-33.38-138.14-1.32-193.54-30.97-55.4-29.64-75.97-86.91-35.42-154.41C69.2,150.86,57.65,22.63,210.59,9Z"/>
      <path class="st6" d="M210.59,9c124.04-11.05,124.24,58.93,180.13,124.13,55.89,65.2,67.85,94.75,46.78,169.91-21.07,75.15-92.06,134.07-179.89,100.69-87.83-33.38-138.14-1.32-193.54-30.97-55.4-29.64-75.97-86.91-35.42-154.41C69.2,150.86,57.65,22.63,210.59,9Z"/>
    </g>
  </g>
  <g id="Glasses">
    <g>
      <path class="st9" d="M263.03,361.73l-1.83-.21c-1.86-.21-3.19-1.47-3.35-3.24-.99-10.57-10.12-18.02-21.99-19.35-10.7-1.2-23.01,3.52-31.08,11.6-2.18,2.19-5.16,3.43-7.89,3.12l-9.1-1.02c-2.74-.31-4.67-2.1-5.25-4.59-2.14-9.23-10.42-16.26-21.12-17.46-11.87-1.33-25.23,3.58-33.13,13.16-1.32,1.6-3.39,2.48-5.24,2.27l-1.83-.21c-.83-.09-1.74.5-2.02,1.33l-1.51,4.41c-.23.68.03,1.33.63,1.57l2.08,1.04c1.63.82,2.44,2.57,2,4.5-3.31,14.3,5.02,26.7,19.69,28.35,14.15,1.59,29.44-7.36,36.23-20.53,1.1-2.13,3.42-3.66,5.75-3.82,2.75-.2,6.21-.09,9.62,1,2.07.66,3.26,2.58,2.87,4.81-2.44,13.68,5.81,25.31,19.98,26.9,14.67,1.65,30.56-8.03,36.94-21.99.86-1.89,2.77-3.33,4.82-3.74l2.61-.52c.72-.1,1.39-.64,1.62-1.32l1.51-4.41c.28-.83-.16-1.57-1-1.66ZM143.35,383.29c-13.63-1.53-20.96-13.76-16.33-27.27,4.63-13.5,19.48-23.25,33.12-21.71,13.63,1.53,20.96,13.76,16.33,27.27s-19.48,23.25-33.12,21.71ZM180.99,359.36c.19-.78.35-1.56.47-2.32.1-.63.79-1.14,1.43-1.07l16.32,1.83c.64.07.94.69.62,1.3-.39.73-.75,1.47-1.08,2.23-6.59-3.26-13.84-2.67-17.75-1.96ZM217.79,391.65c-13.63-1.53-20.96-13.76-16.33-27.27,4.63-13.5,19.48-23.25,33.12-21.71,13.63,1.53,20.96,13.76,16.33,27.27-4.63,13.5-19.48,23.25-33.12,21.72Z"/>
      <path class="st17" d="M250.95,362.53l-105.84-4.45c-5.05-.21-9.96,1.73-13.51,5.34l-19.01,19.36c-.75.77-.59,2.04.33,2.59h0c1.95,1.17,4.44.85,6.03-.77l17.57-17.88c2.12-2.15,5.04-3.32,8.06-3.22l105.97,3.5.39-4.46Z"/>
      <path class="st17" d="M109.89,346.72l104.62,16.58c5,.79,9.42,3.66,12.18,7.9l14.8,22.74c.59.9.18,2.11-.84,2.47h0c-2.14.76-4.52-.05-5.76-1.95l-13.68-21c-1.65-2.53-4.28-4.26-7.26-4.76l-104.57-17.54.5-4.45Z"/>
      <g>
        <path class="st20" d="M171.96,364.45c1.24.47-.35,9.2-3.78,11.69-3.43,2.49-5.15-5.29-3.93-7.74,1.22-2.45,3.82-5.42,7.71-3.95Z"/>
        <path class="st20" d="M190.28,366.51c-1.31.18-1.7,9.05,1.09,12.24s6.19-4.01,5.55-6.68c-.64-2.66-2.52-6.13-6.64-5.56Z"/>
      </g>
      <path class="st3" d="M129.06,335.75c6.28-3.71,19.22-9.63,30.54.15s14.25,18.75,9.7,29.44c-4.56,10.69-15.12,24.15-33.42,18.27-18.3-5.89-26.3-36.33-6.81-47.85Z"/>
      <path class="st3" d="M203.44,345.09c6.28-3.71,19.22-9.63,30.54.15,11.32,9.78,14.25,18.75,9.7,29.44-4.56,10.69-15.12,24.15-33.42,18.27-18.3-5.89-26.3-36.33-6.81-47.85Z"/>
      <path class="st19" d="M253.39,361.31l-1.83-.21c-1.86-.21-3.43-1.48-3.99-3.26-3.3-10.67-13.85-18.17-25.72-19.5-10.7-1.2-21.66,3.57-27.75,11.74-1.65,2.21-4.27,3.46-7.01,3.15l-9.1-1.02c-2.74-.31-5.02-2.11-6.13-4.63-4.12-9.32-13.76-16.4-24.45-17.6-11.87-1.33-23.81,3.64-29.4,13.31-.93,1.62-2.75,2.51-4.61,2.3l-1.83-.21c-.83-.09-1.58.51-1.68,1.34l-.5,4.45c-.08.69.32,1.34.96,1.59l2.26,1.05c1.77.82,2.95,2.59,2.94,4.54-.06,14.44,10.8,26.94,25.46,28.59,14.15,1.59,27.08-7.46,30.79-20.75.6-2.15,2.53-3.69,4.76-3.86,2.63-.2,6.03-.09,9.6,1,2.16.66,3.75,2.6,3.86,4.85.65,13.81,11.26,25.53,25.43,27.12,14.67,1.65,28.03-8.14,31.17-22.23.42-1.91,1.97-3.37,3.88-3.78l2.43-.52c.68-.1,1.21-.65,1.29-1.33l.5-4.45c.09-.83-.51-1.58-1.34-1.68ZM141.44,383.18c-13.63-1.53-23.48-13.87-21.95-27.5,1.53-13.63,13.87-23.48,27.5-21.95,13.63,1.53,23.48,13.87,21.95,27.5-1.53,13.63-13.87,23.48-27.5,21.95ZM172.86,358.99c.02-.79,0-1.57-.05-2.35-.04-.64.52-1.15,1.16-1.08l16.32,1.83c.64.07,1.07.7.89,1.31-.22.74-.41,1.48-.57,2.25-7.14-3.29-14.08-2.68-17.74-1.96ZM215.88,391.54c-13.63-1.53-23.48-13.87-21.95-27.5,1.53-13.63,13.87-23.48,27.5-21.95,13.63,1.53,23.48,13.87,21.95,27.5-1.53,13.63-13.87,23.48-27.5,21.95Z"/>
      <path class="st2" d="M124.88,371.33s-6.94-13.51,1.87-26.26c7.92-11.47,21.62-10.53,27.49-6.74l-18.15,21.76c3.43-8.71,8.77-16.18,8.77-16.18,0,0-14.42,10.24-19.98,27.42Z"/>
      <path class="st2" d="M199.28,378.97s-6.94-13.51,1.87-26.26c7.92-11.47,21.62-10.53,27.49-6.74l-18.15,21.76c2.57-8.51,8.77-16.18,8.77-16.18,0,0-14.42,10.24-19.98,27.42Z"/>
    </g>
  </g>
  <g id="Device">
    <g>
      <path class="st9" d="M132.08,272.96s-20.23,25.1-21.64,26.68c-1.4,1.58-1.02,27.02-4.47,38.45-3.44,11.44-15.4,23.21-42.08,81.17l-3.6-112.92,19.66-78.65,52.12,45.26Z"/>
      <g>
        <path class="st1" d="M146.93,271.91s-13.36-61.36-23.92-68.97c-6.12-4.42-15.35-6-23.4-5.23-5.84.55-11.07,2.34-14.04,5.19-7.09,6.79-17.34,10.76-22.31,15.17-4.98,4.41-4.12,18.96-6.75,31.48-2.63,12.51-7.47,13.17-7.85,25.54-.39,12.38-2.65,50.33-10.14,61.26-7.49,10.93-7.2,19.15-9.93,29.98-2.73,10.84-25.01,50.76-25.01,50.76l60.6,8.72s4.45-24.71,9.57-44.95c2.43-9.61,5.02-18.22,7.35-22.69,7.24-13.91,11.31-26.88,11.31-26.88,6.35-7.49,9.13-23.42,9.44-37.25h0s15.49-9.9,15.49-9.9c12.11-4.08,29.6-12.24,29.6-12.24Z"/>
        <path class="st13" d="M146.93,271.91s-13.36-61.36-23.92-68.97c-6.12-4.42-15.35-6-23.4-5.23-18.87,5.87-23.39,16.83-25.83,19.57-3.25,3.65-6.55,24.89-3.33,36.95,3.2,12.06,1.68,16.68-.02,22.76-3.77,13.47,10.54,19.76,12.27,24.68,1.73,4.9,2.87,32.9-2.83,42.36-3.03,5.03-10.12,30.48-6.12,36.85,2.43-9.61,5.02-18.22,7.35-22.69,7.24-13.91,11.31-26.88,11.31-26.88,6.35-7.49,9.13-23.42,9.44-37.25h0s15.49-9.9,15.49-9.9c12.11-4.08,29.6-12.24,29.6-12.24Z"/>
        <path class="st23" d="M74.07,280.58s-3.61-3.77-6.59-3.6"/>
        <path class="st23" d="M80.63,266.73s-4.09-7.5-9.97-8.84"/>
        <path class="st23" d="M71.53,221.89s8.42,3.06,10.08,8.95"/>
        <path class="st23" d="M117.33,284.15s-2.21-2.49-2.33-4.54"/>
        <path class="st23" d="M64.18,425.82s9.68-53.73,16.92-67.65c7.24-13.91,11.31-26.88,11.31-26.88,6.35-7.49,9.13-23.43,9.44-37.26h0s0,0,0,0l15.49-9.89c12.11-4.08,29.6-12.24,29.6-12.24,0,0-13.36-61.36-23.92-68.97-10.56-7.62-30.35-6.82-37.44-.04-7.09,6.79-17.34,10.76-22.31,15.17-4.98,4.41-4.12,18.96-6.75,31.48-2.63,12.51-7.47,13.17-7.85,25.54-.39,12.38-2.65,50.33-10.14,61.26s-7.2,19.15-9.93,29.98c-2.73,10.84-25.01,50.76-25.01,50.76"/>
      </g>
      <g>
        <path class="st12" d="M48.19,71.49h16.2c.55,0,.99.44.99.99v6.85h-18.18v-6.85c0-.55.44-.99.99-.99Z" transform="translate(-12.43 139.7) rotate(-96.36)"/>
        <path class="st12" d="M84.59,40.24h16.2c.55,0,.99.44.99.99v6.85h-18.18v-6.85c0-.55.44-.99.99-.99Z" transform="translate(-4.32 10.53) rotate(-6.36)"/>
        <path class="st12" d="M106.08,37.84h16.2c.55,0,.99.44.99.99v6.85h-18.18v-6.85c0-.55.44-.99.99-.99Z" transform="translate(-3.92 12.9) rotate(-6.36)"/>
        <path class="st19" d="M77.17,281.8l-23.89-214.49c-1.27-11.4,6.94-21.68,18.35-22.95L383.64,9.61c11.4-1.27,21.68,6.94,22.95,18.35l23.89,214.49c1.27,11.4-6.94,21.68-18.35,22.95l-312.01,34.75c-11.4,1.27-21.68-6.94-22.95-18.35Z"/>
        <path class="st20" d="M412.12,262.68l-312.6,34.82c-9.76,1.09-18.55-5.94-19.63-15.7l-23.96-215.08c-1.09-9.76,5.94-18.55,15.7-19.63L384.23,12.27c9.76-1.09,18.55,5.94,19.63,15.7l23.96,215.08c1.09,9.76-5.94,18.55-15.7,19.63Z"/>
        <path class="st22" d="M73.07,173.68c.07.65-.4,1.24-1.05,1.31s-1.24-.4-1.31-1.05c-.07-.65.4-1.24,1.05-1.31.65-.07,1.24.4,1.31,1.05Z"/>
        <path class="st17" d="M75.34,184.31c.14,1.25-.76,2.37-2.01,2.51-1.25.14-2.37-.76-2.51-2.01-.14-1.25.76-2.37,2.01-2.51,1.25-.14,2.37.76,2.51,2.01Z"/>
        <path class="st17" d="M72.41,158.04c.14,1.25-.76,2.37-2.01,2.51-1.25.14-2.37-.76-2.51-2.01-.14-1.25.76-2.37,2.01-2.51,1.25-.14,2.37.76,2.51,2.01Z"/>
        <path class="st17" d="M75.56,191.85c.1.91-.55,1.73-1.46,1.83-.91.1-1.73-.55-1.83-1.46s.55-1.73,1.46-1.83c.91-.1,1.73.55,1.83,1.46Z"/>
        <path class="st1" d="M91.53,282.89l-24.15-216.85c-.54-4.82,2.93-9.15,7.75-9.69L389.5,21.33c4.82-.54,9.15,2.93,9.69,7.75l24.15,216.85c.54,4.82-2.93,9.15-7.75,9.69l-314.37,35.02c-4.82.54-9.15-2.93-9.69-7.75Z"/>
        <path class="st10" d="M390.02,21.28L74.6,56.41c-4.53.5-7.79,4.58-7.28,9.11l24.27,217.9c.5,4.53,4.58,7.79,9.11,7.28l315.42-35.13c4.53-.5,7.79-4.58,7.28-9.11l-24.27-217.9c-.5-4.53-4.58-7.79-9.11-7.28Z"/>
        <g>
          <path class="st17" d="M163.54,74.62h-.07s.09,12.73.09,12.73l-5.09.57-5.26-23.32,3.61-.4,4.03,18.4h.07s-.32-18.82-.32-18.82l3.58-.4,3.91,18.55h.07s-.2-18.97-.2-18.97l3.24-.36v23.9s-4.93.55-4.93.55l-2.72-12.43Z"/>
          <path class="st17" d="M177.86,71.93l5.09-.57.38,3.37-5.09.57.77,6.92,6.41-.71.38,3.37-10.12,1.13-2.63-23.61,10.12-1.13.38,3.37-6.41.71.73,6.58Z"/>
          <path class="st17" d="M205.32,82.7l-3.74.42-1.12-4.21-4.55.51-.16,4.35-3.41.38,1.15-24.03,5.43-.61,6.41,23.19ZM196.02,76.16l3.58-.4-3.08-11.75h-.07s-.42,12.14-.42,12.14Z"/>
          <path class="st17" d="M214.8,81.65c-.27-.58-.45-.94-.66-2.86l-.41-3.71c-.24-2.19-1.08-2.92-2.76-2.73l-1.28.14,1.07,9.61-3.71.41-2.63-23.61,5.6-.62c3.84-.43,5.7,1.17,6.1,4.82l.21,1.86c.27,2.43-.33,4.07-1.9,5.03v.07c1.95.57,2.75,2.26,3.03,4.72l.41,3.64c.13,1.15.26,1.99.72,2.82l-3.78.42ZM208.5,61.86l.81,7.25,1.45-.16c1.38-.15,2.16-.85,1.95-2.74l-.26-2.33c-.19-1.69-.84-2.36-2.16-2.22l-1.79.2Z"/>
          <path class="st17" d="M222.79,66.93l5.09-.57.38,3.37-5.09.57.77,6.91,6.41-.71.38,3.37-10.12,1.13-2.63-23.61,10.12-1.13.38,3.37-6.41.71.73,6.58Z"/>
          <path class="st17" d="M241.96,78.62l-3.71.41-2.63-23.61,3.71-.41,1.13,10.12,4.22-.47-1.13-10.12,3.78-.42,2.63,23.61-3.78.42-1.13-10.12-4.22.47,1.13,10.12Z"/>
          <path class="st17" d="M250.02,53.82l3.71-.41,2.63,23.61-3.71.41-2.63-23.61Z"/>
          <path class="st17" d="M266.82,75.85c-.27-.59-.45-.94-.66-2.86l-.41-3.71c-.24-2.19-1.08-2.92-2.76-2.73l-1.28.14,1.07,9.61-3.71.41-2.63-23.61,5.6-.62c3.84-.43,5.7,1.17,6.1,4.82l.21,1.86c.27,2.43-.33,4.07-1.9,5.03v.07c1.95.57,2.75,2.25,3.03,4.72l.41,3.64c.13,1.15.26,1.99.72,2.82l-3.78.42ZM260.51,56.07l.81,7.25,1.45-.16c1.38-.15,2.16-.85,1.95-2.74l-.26-2.33c-.19-1.69-.84-2.36-2.16-2.22l-1.79.2Z"/>
          <path class="st17" d="M269.99,51.6l3.71-.41,2.63,23.61-3.71.41-2.63-23.61Z"/>
          <path class="st17" d="M280.5,57.02h-.07s1.9,17.11,1.9,17.11l-3.34.37-2.63-23.61,4.65-.52,5.32,13.71h.07s-1.57-14.14-1.57-14.14l3.31-.37,2.63,23.61-3.81.42-6.46-16.59Z"/>
          <path class="st17" d="M297.53,59.12l5.19-.58.83,7.49c.42,3.78-1.23,6.15-4.87,6.55-3.64.41-5.77-1.54-6.19-5.32l-1.37-12.28c-.42-3.78,1.23-6.15,4.87-6.55,3.64-.41,5.77,1.54,6.19,5.32l.25,2.29-3.51.39-.28-2.53c-.19-1.69-1-2.24-2.18-2.11-1.18.13-1.85.86-1.66,2.54l1.42,12.75c.19,1.69,1,2.21,2.18,2.08,1.18-.13,1.86-.82,1.67-2.51l-.48-4.35-1.69.19-.38-3.37Z"/>
          <path class="st17" d="M306.48,66.14l-1.42-8.48-1.1-9.85,3.71-.41,1.1,9.85.48,8.59-2.77.31ZM309.83,67.44l.4,3.58-3.58.4-.4-3.58,3.57-.4Z"/>
        </g>
        <g>
          <path class="st19" d="M280.02,251.42l-54.1,6.03c-8.94,1-17-5.45-17.99-14.39h0c-1-8.94,5.45-17,14.39-17.99l54.1-6.03c8.94-1,17,5.45,17.99,14.39h0c1,8.94-5.45,17-14.39,17.99Z"/>
          <g>
            <path class="st17" d="M240.58,246.85l-2.43.27-.72-2.73-2.95.33-.11,2.82-2.21.25.74-15.58,3.52-.39,4.15,15.04ZM234.55,242.61l2.32-.26-2-7.61h-.04s-.27,7.87-.27,7.87Z"/>
            <path class="st17" d="M247.55,234.41l.22,1.99c.27,2.45-.76,3.91-3.16,4.18l-1.14.13.64,5.75-2.41.27-1.71-15.31,3.54-.39c2.41-.27,3.73.93,4.01,3.38ZM242.64,233.34l.58,5.18,1.14-.13c.77-.09,1.14-.48,1.02-1.58l-.25-2.3c-.12-1.09-.58-1.4-1.34-1.31l-1.14.13Z"/>
            <path class="st17" d="M255.79,233.49l.22,1.99c.27,2.45-.76,3.92-3.17,4.18l-1.14.13.64,5.75-2.41.27-1.71-15.31,3.54-.39c2.41-.27,3.73.93,4.01,3.38ZM250.89,232.42l.58,5.18,1.14-.13c.76-.08,1.14-.48,1.02-1.57l-.26-2.3c-.12-1.09-.58-1.4-1.34-1.31l-1.14.13Z"/>
            <path class="st17" d="M256.49,229.58l2.41-.27,1.46,13.12,3.96-.44.24,2.19-6.36.71-1.71-15.31Z"/>
            <path class="st17" d="M265.94,238.89l-4.18-9.9,2.51-.28,2.59,6.77h.04s1.04-7.18,1.04-7.18l2.3-.26-1.9,10.57.56,5.07-2.41.27-.57-5.07Z"/>
          </g>
        </g>
        <rect class="st22" x="222.01" y="269.3" width="65.44" height="2.02" transform="translate(-28.36 29.86) rotate(-6.36)"/>
        <g>
          <path class="st1" d="M380.72,196.3l-258.73,28.82s-11.24-24.16-4.44-39.84c6.8-15.68,27.39-6.74,36.11-21.29,8.72-14.56-1.37-24.19,8.22-44.09,9.59-19.9,37.11-30.56,57.65-21.82,20.54,8.75,27.49,21.91,40.55,18.22,13.06-3.69,20.46-20.68,46.38-19.47,25.91,1.21,31.45,37.48,29.95,55.37-1.5,17.89,50.1,1.95,44.32,44.1Z"/>
          <g>
            <g>
              <polygon class="st1" points="303.4 118.03 303.16 115.86 286.96 117.68 287.45 122.06 288.31 129.84 304.52 128.04 303.4 118.03"/>
              <g class="st32">
                <rect class="st7" x="287.65" y="117.06" width="10.27" height="12.08" transform="translate(597.39 213.02) rotate(173.64)"/>
              </g>
              <polygon class="st23" points="303.4 118.03 303.16 115.86 286.96 117.68 287.45 122.06 288.31 129.84 304.52 128.04 303.4 118.03"/>
            </g>
            <line class="st23" x1="297.22" y1="116.53" x2="297.34" y2="117.6"/>
            <g>
              <polygon class="st17" points="289.25 142.99 287.39 126.37 296.06 119.8 304.65 118.85 307.1 140.83 289.25 142.99"/>
              <g class="st26">
                <polygon class="st7" points="289.25 142.99 298.89 141.92 296.42 119.76 287.39 126.37 289.25 142.99"/>
              </g>
              <polygon class="st23" points="289.25 142.99 287.39 126.37 296.06 119.8 304.65 118.85 307.1 140.83 289.25 142.99"/>
            </g>
            <line class="st8" x1="296.83" y1="123.44" x2="297.35" y2="128.08"/>
            <line class="st8" x1="297.66" y1="130.84" x2="298.74" y2="140.62"/>
          </g>
          <g>
            <path class="st22" d="M219.22,184.07h3.18c1,0,1.82.81,1.82,1.82v6.89h-6.81v-6.89c0-1,.81-1.82,1.82-1.82Z" transform="translate(461.12 351.23) rotate(173.64)"/>
            <rect class="st20" x="219.7" y="192.71" width="4.26" height="9.81" transform="translate(464.18 369.46) rotate(173.64)"/>
            <polygon class="st20" points="216.08 184.56 224.79 183.59 227.18 179.59 212.87 181.19 216.08 184.56"/>
            <path class="st22" d="M240.54,168.96l-11.94,1.33-4.05-12.59-1.69-.04,4.01,13.12h0c-.7.08-1.2.7-1.12,1.4l.29,2.56c.2,1.76,1.79,3.04,3.55,2.84l10.28-1.14c.83-.09,1.42-.84,1.33-1.66l-.65-5.8Z"/>
            <path class="st21" d="M241.59,175.25l-.62.07c-.86.1-1.66-.46-1.87-1.3l-3.51-13.81c-.35-1.33-1.54-2.27-2.91-2.3l-9.83-.25c-.76-.02-1.38-.59-1.46-1.34h0c-.09-.83.51-1.58,1.33-1.67l1.22-.14,9.76.41c2.39.1,4.43,1.77,5,4.09l3.71,15.08c.14.56-.25,1.11-.82,1.17h0"/>
            <g>
              <path class="st11" d="M182.2,131.61l13.7,44.76,30.77-3.43.67-4.88-7.52-24.82-5.04-16.67c-.66-2.17-2.79-3.59-5.02-3.34l-23.81,2.65c-1.54.17-2.76,1.07-3.41,2.3-.53,1-.68,2.2-.32,3.41Z"/>
              <g class="st31">
                <path class="st7" d="M182.2,131.61l13.7,44.76,30.77-3.43.67-4.88-7.52-24.82-25.69,2.86-4.83-15.78c-.49-1.62-2.07-2.65-3.75-2.47l-3.02.34c-.53,1-.68,2.2-.32,3.41Z"/>
              </g>
              <path class="st23" d="M182.2,131.61l13.7,44.76,30.77-3.43.67-4.88-7.52-24.82-5.04-16.67c-.66-2.17-2.79-3.59-5.02-3.34l-23.81,2.65c-1.54.17-2.76,1.07-3.41,2.3-.53,1-.68,2.2-.32,3.41Z"/>
            </g>
            <path class="st22" d="M206.48,211.21c6.31-4.2,25.88-6.38,32.96-3.67l3-1.21c-7.58-3.91-17.95-4.08-17.95-4.08l-4.59.51s-10.09,2.44-16.62,7.93l3.19.52Z"/>
            <path class="st21" d="M239.26,209.37c.16,1.47,1.48,2.52,2.95,2.36,1.47-.16,2.52-1.48,2.36-2.95-.16-1.47-1.48-2.52-2.95-2.36-1.47.16-2.52,1.48-2.36,2.95Z"/>
            <path class="st21" d="M201.76,213.55c.16,1.47,1.48,2.52,2.95,2.36,1.47-.16,2.52-1.48,2.36-2.95-.16-1.47-1.48-2.52-2.95-2.36s-2.52,1.48-2.36,2.95Z"/>
            <g>
              <path class="st11" d="M206.99,183.16l30.12-3.35c5.42-.6,9.33-5.49,8.73-10.91v-.05c-.18-1.6-1.63-2.75-3.23-2.58l-43.96,4.9c-1.6.18-2.75,1.62-2.58,3.22v.05c.61,5.42,5.5,9.33,10.92,8.73Z"/>
              <g class="st29">
                <path class="st7" d="M196.05,174.21l.09.81c.57,5.1,5.17,8.77,10.26,8.2l31.3-3.49c5.1-.57,8.77-5.16,8.2-10.26l-.09-.81c-.12-1.1-.87-1.97-1.86-2.3l.17,1.51c.2,1.82-1.11,3.46-2.93,3.66l-27.77,3.09c-1.82.2-3.46-1.11-3.66-2.93l-.2-1.77-11.08,1.23c-1.5.17-2.59,1.53-2.42,3.03Z"/>
              </g>
              <path class="st23" d="M206.99,183.16l30.12-3.35c5.42-.6,9.33-5.49,8.73-10.91v-.05c-.18-1.6-1.63-2.75-3.23-2.58l-43.96,4.9c-1.6.18-2.75,1.62-2.58,3.22v.05c.61,5.42,5.5,9.33,10.92,8.73Z"/>
            </g>
            <path class="st22" d="M206.91,172.71l-11.94,1.33-4.05-12.59-1.69-.04,4.01,13.12h0c-.7.08-1.2.7-1.12,1.4l.28,2.56c.2,1.76,1.79,3.04,3.55,2.84l10.28-1.14c.83-.09,1.42-.84,1.33-1.66l-.65-5.8Z"/>
            <path class="st21" d="M207.96,179l-.62.07c-.86.1-1.66-.46-1.87-1.3l-3.51-13.81c-.35-1.33-1.54-2.27-2.91-2.3l-9.83-.25c-.76-.02-1.38-.59-1.46-1.34h0c-.09-.83.51-1.58,1.33-1.67l1.22-.14,9.76.41c2.39.1,4.43,1.77,5,4.09l3.71,15.08c.14.56-.25,1.11-.82,1.17h0"/>
          </g>
          <g>
            <path class="st22" d="M229.33,147.67l-11.13,1.24.07.6c.07.6.61,1.04,1.21.97l.29-.03,36.35-4.05c.4-.04.68-.4.64-.8l-.11-.98-27.31,3.04Z"/>
            <path class="st21" d="M263.15,125.13l-1.81,18.02c-.08.77-.69,1.39-1.46,1.47l-28.05,3.12c-.71.08-1.31-.52-1.24-1.23l1.99-18.04c.08-.77.69-1.37,1.46-1.46l27.87-3.1c.71-.08,1.31.52,1.24,1.22Z"/>
            <polygon class="st4" points="247.72 133.7 249.89 133.46 250.72 135.34 249.38 137.45 247.21 137.69 246.38 135.82 247.72 133.7"/>
          </g>
          <g>
            <g>
              <polygon class="st1" points="290.88 119.73 290.64 117.56 274.44 119.38 274.93 123.76 275.79 131.54 292 129.73 290.88 119.73"/>
              <g class="st16">
                <rect class="st7" x="275.04" y="118.76" width="10.32" height="11.49" transform="translate(572.47 217.23) rotate(173.64)"/>
              </g>
              <polygon class="st23" points="290.88 119.73 290.64 117.56 274.44 119.38 274.93 123.76 275.79 131.54 292 129.73 290.88 119.73"/>
            </g>
            <line class="st23" x1="284.7" y1="118.22" x2="284.82" y2="119.3"/>
            <g>
              <polygon class="st11" points="276.73 144.69 274.87 128.06 283.54 121.5 292.13 120.54 294.58 142.53 276.73 144.69"/>
              <g class="st27">
                <polygon class="st7" points="283.54 121.5 286 143.57 276.72 144.6 274.87 128.06 283.54 121.5"/>
              </g>
              <polygon class="st23" points="276.73 144.69 274.87 128.06 283.54 121.5 292.13 120.54 294.58 142.53 276.73 144.69"/>
            </g>
            <line class="st23" x1="284.31" y1="125.14" x2="284.83" y2="129.77"/>
            <line class="st23" x1="285.14" y1="132.54" x2="286.23" y2="142.32"/>
          </g>
          <g>
            <g>
              <rect class="st11" x="271.71" y="148" width="4.29" height="60.02" transform="translate(-18.02 31.41) rotate(-6.36)"/>
              <g class="st14">
                <rect class="st7" x="271.71" y="148" width="4.29" height="60.02" transform="translate(-18.02 31.41) rotate(-6.36)"/>
              </g>
              <rect class="st23" x="271.71" y="148" width="4.29" height="60.02" transform="translate(-18.02 31.41) rotate(-6.36)"/>
            </g>
            <polygon class="st12" points="246.51 150.86 309.87 143.81 316.51 203.46 312.25 203.93 306 147.78 246.9 154.37 246.51 150.86"/>
            <g>
              <polygon class="st11" points="297.38 141.84 204.59 152.18 204.96 155.47 311.67 143.58 311.3 140.29 303.5 141.16 297.38 141.84"/>
              <g class="st15">
                <polygon class="st5" points="297.38 141.84 204.59 152.18 204.96 155.47 311.67 143.58 311.3 140.29 303.5 141.16 297.38 141.84"/>
              </g>
              <polygon class="st23" points="297.38 141.84 204.59 152.18 204.96 155.47 311.67 143.58 311.3 140.29 303.5 141.16 297.38 141.84"/>
            </g>
            <g>
              <polygon class="st11" points="213.4 214.94 206.76 155.29 249.16 150.57 255.8 210.22 251.54 210.69 245.28 154.55 211.41 158.32 217.66 214.47 213.4 214.94"/>
              <g class="st28">
                <polygon class="st0" points="213.4 214.94 206.76 155.29 249.16 150.57 255.8 210.22 251.54 210.69 245.28 154.55 211.41 158.32 217.66 214.47 213.4 214.94"/>
              </g>
              <polygon class="st23" points="213.4 214.94 206.76 155.29 249.16 150.57 255.8 210.22 251.54 210.69 245.28 154.55 211.41 158.32 217.66 214.47 213.4 214.94"/>
            </g>
          </g>
          <g>
            <path class="st20" d="M314.3,159.36c-9.7-7.76-23.86-6.18-31.62,3.52-7.76,9.7-6.18,23.86,3.52,31.62,9.16,7.32,22.28,6.33,30.25-1.97l3.39,2.71,2.58-3.23-3.39-2.71c6.34-9.6,4.42-22.62-4.74-29.94ZM315.62,189.22c-6.79,8.49-19.17,9.87-27.66,3.08-8.49-6.79-9.87-19.17-3.08-27.66,6.79-8.49,19.17-9.87,27.66-3.08,8.49,6.79,9.87,19.17,3.08,27.66Z"/>
            <path class="st22" d="M348.15,215.23h0c-1.09,1.36-3.08,1.58-4.44.49l-24.64-19.7c-.29-.23-.34-.65-.11-.94l3.11-3.89c.23-.29.65-.34.94-.11l24.64,19.7c1.36,1.09,1.58,3.08.49,4.44Z"/>
          </g>
          <polygon class="st22" points="182.66 218.36 179.78 218.69 166.76 168.06 169.55 167.34 182.66 218.36"/>
          <rect class="st17" x="148.5" y="148.77" width="35.69" height="22.37" transform="translate(-34.58 46.44) rotate(-14.41)"/>
          <text class="st24" transform="translate(149.23 162.36) rotate(-14.41) scale(1.11 1)"><tspan class="st25" x="0" y="0"> </tspan><tspan class="st30" x="2.1" y="0" xml:space="preserve"> INTERN</tspan><tspan class="st30"><tspan x="0" y="7.8">POSITIONS</tspan></tspan></text>
          <g>
            <path class="st4" d="M358.42,93.1l-46.81,5.21c-1.63.18-2.81,1.65-2.63,3.29l1.84,16.5c.18,1.63,1.65,2.81,3.29,2.63l5.85-.65-3.97,9.97,7.84-10.4,37.09-4.13c1.63-.18,2.81-1.65,2.63-3.29l-1.84-16.5c-.18-1.63-1.65-2.81-3.29-2.63Z"/>
            <g>
              <path class="st17" d="M318.4,111.95c-.07-.16-.12-.25-.18-.76l-.11-.99c-.07-.58-.29-.78-.74-.73l-.34.04.29,2.56-.99.11-.7-6.29,1.49-.17c1.03-.11,1.52.31,1.63,1.29l.06.49c.07.65-.09,1.08-.51,1.34v.02c.52.15.73.6.81,1.26l.11.97c.03.31.07.53.19.75l-1.01.11ZM316.72,106.67l.21,1.93.39-.04c.37-.04.58-.23.52-.73l-.07-.62c-.05-.45-.23-.63-.58-.59l-.48.05Z"/>
              <path class="st17" d="M320.53,108.02l1.36-.15.1.9-1.36.15.21,1.84,1.71-.19.1.9-2.7.3-.7-6.29,2.7-.3.1.9-1.71.19.2,1.75Z"/>
              <path class="st17" d="M322.64,106.63c-.11-1.01.36-1.64,1.33-1.75.97-.11,1.57.41,1.68,1.42l.37,3.27c.04.35,0,.65-.09.9.06.11.13.12.29.1h.09s.1.87.1.87l-.13.02c-.44.05-.74-.08-.9-.34-.19.09-.42.16-.68.19-.97.11-1.57-.41-1.68-1.42l-.37-3.27ZM324,109.86c.05.45.27.6.58.56.31-.04.49-.23.44-.68l-.38-3.4c-.05-.45-.27-.6-.58-.56-.31.04-.49.23-.44.68l.38,3.4Z"/>
              <path class="st17" d="M327.06,104.61l.54,4.86c.05.45.27.59.58.55.32-.04.5-.22.45-.67l-.54-4.86.93-.1.53,4.79c.11,1.01-.33,1.64-1.3,1.75-.97.11-1.54-.41-1.65-1.42l-.53-4.79.99-.11Z"/>
              <path class="st17" d="M329.69,104.32l.99-.11.7,6.29-.99.11-.7-6.29Z"/>
              <path class="st17" d="M334.16,110.19c-.07-.16-.12-.25-.18-.76l-.11-.99c-.07-.59-.29-.78-.74-.73l-.34.04.29,2.56-.99.11-.7-6.29,1.49-.17c1.03-.11,1.52.31,1.63,1.29l.05.49c.07.65-.09,1.08-.51,1.34v.02c.52.15.73.6.81,1.26l.11.97c.03.31.07.53.19.75l-1.01.11ZM332.48,104.92l.21,1.93.39-.04c.37-.04.58-.23.52-.73l-.07-.62c-.05-.45-.22-.63-.58-.59l-.48.05Z"/>
              <path class="st17" d="M336.29,106.27l1.36-.15.1.9-1.36.15.21,1.84,1.71-.19.1.9-2.7.3-.7-6.3,2.7-.3.1.9-1.71.19.2,1.75Z"/>
              <path class="st17" d="M340.9,107.59h.02s.17-4.55.17-4.55l1.38-.15.7,6.29-.93.1-.5-4.51h-.02s-.16,4.59-.16,4.59l-.94.1-1.21-4.37h-.02s.5,4.45.5,4.45l-.86.1-.7-6.29,1.38-.15,1.22,4.39Z"/>
              <path class="st17" d="M344.46,105.36l1.36-.15.1.9-1.36.15.2,1.84,1.71-.19.1.9-2.7.3-.7-6.29,2.7-.3.1.9-1.71.19.2,1.75Z"/>
              <path class="st17" d="M347.57,104.08h-.02s.51,4.56.51,4.56l-.89.1-.7-6.29,1.24-.14,1.42,3.66h.02s-.42-3.77-.42-3.77l.88-.1.7,6.29-1.02.11-1.72-4.42Z"/>
              <path class="st17" d="M350.03,102.05l3.06-.34.1.9-1.03.12.6,5.39-.99.11-.6-5.39-1.03.12-.1-.9Z"/>
              <path class="st17" d="M354.84,101.44c.96-.11,1.52.41,1.63,1.42l.02.2-.94.1-.03-.26c-.05-.45-.25-.6-.56-.57-.31.04-.48.23-.43.68.05.46.29.78,1,1.27.91.64,1.23,1.13,1.31,1.85.11,1.01-.33,1.64-1.3,1.75-.97.11-1.54-.41-1.65-1.42l-.04-.39.94-.1.05.45c.05.45.27.59.58.55.31-.04.49-.22.44-.67-.05-.46-.29-.78-1-1.27-.91-.64-1.23-1.13-1.31-1.85-.11-1.01.32-1.64,1.28-1.75Z"/>
            </g>
          </g>
          <line class="st23" x1="109" y1="226.57" x2="393.9" y2="194.84"/>
        </g>
      </g>
      <g>
        <path class="st1" d="M111.07,222.56c-2.4-1.18-5.53-1.06-8.06.35-1.74.96-3.35,2.62-4.7,5.45-3.33,6.94-12.51,22.83-14.1,27.38-1.6,4.55-4.98,17.18-8.77,22.64-3.8,5.47-5.58,13.44-5.58,13.44l3.01,76.2c1.58-11.14,7.01-24,7.01-24,8.85-5.39,12.54-12.72,12.54-12.72.86-1.02,1.65-2.18,2.38-3.48,5.54-9.79,7.48-26.93,7.03-40.13-.5-14.95,3.95-21.95,11.01-35.47,7.07-13.53,3.51-27.06-1.75-29.65Z"/>
        <path class="st13" d="M111.07,222.56c-2.43-1.12-5.53-1.06-8.06.35,4.35.92,10.1,2.78,9,6.13-1.72,5.29-8.11-2.03-10.94.65-2.84,2.68-12.81,17.65-5.56,23.55,7.24,5.91,5.69,16.61,1.17,19.87-4.52,3.27-1.05,10.18,1.1,21.27,1.31,6.71-.99,22.21-2.99,33.43,5.54-9.79,7.48-26.93,7.03-40.13-.5-14.95,3.95-21.95,11.01-35.47,7.07-13.53,3.5-27.24-1.75-29.65Z"/>
        <path class="st23" d="M72.86,368.02c1.59-11.14,7.01-24,7.01-24,8.85-5.39,12.54-12.72,12.54-12.72,7.35-8.67,9.91-28.67,9.4-43.61-.51-14.95,3.94-21.95,11.01-35.47,7.06-13.52,4.09-26.9-1.75-29.65-4.07-1.92-9.43-1.14-12.76,5.8s-12.5,22.83-14.11,27.38c-1.6,4.55-4.98,17.18-8.77,22.64-3.8,5.47-5.57,13.43-5.57,13.43"/>
        <path class="st23" d="M90.58,256.71s6.13.18,9.05,2.32"/>
        <path class="st23" d="M67.53,290.41s-1.35-2.8,4.7-5.94"/>
      </g>
    </g>
  </g>
  <g id="Hand">
    <g>
      <path class="st9" d="M282.18,233.33c12.23.1,27.51,55.18,32.27,61.52,0,0,68.25,2.35,76.86,11.86,8.61,9.52,4.33,17.56,10.03,26.6,5.7,9.03,7.28,24.25,7.28,24.25l14.92,25.29-64.29,30.79s-34.35-19.67-42.73-24.12c-8.38-4.45-33.16-14.1-39.76-26.68-6.6-12.58-6.93-24.31-8.35-29.52-1.42-5.21,26.17-20.77,26.17-20.77l-12.4-79.21Z"/>
      <g>
        <path class="st1" d="M432.14,387.84c-5.54-5.12-11.36-10.56-16.15-15.06,0,0-.02-.01-.02-.02-6.12-5.74-10.54-9.93-10.54-9.93-3.64-7.63-6.84-10.21-10.87-16.23-4.02-6.02-3.42-12.39-4.36-20.82-.96-8.43-4.36-15.66-6.45-20.63-2.1-4.96-2.26-10.09-2.68-11.2-.42-1.11-6.75-5.98-9.68-9.98-1.31-1.8-2.96-3.36-4.76-4.58-2.2-1.51-4.62-2.51-6.87-2.81-1.16-.15-2.18-.15-3.1-.06-2.36.22-4.13,1.03-5.98,1.48-2.58.62-9.1-2.53-12.87-2.38-.7.03-1.39.09-2.09.2h-.03c-3.04.44-6.08,1.5-9.52,2.57-3.39,1.05-8.24-1.22-11.73-1.47-.02,0-.04,0-.06,0-.87-.05-1.65.01-2.3.29-3.31,1.4-9.64,3.52-9.64,3.52,0,0-1.64-4.31-3.37-10.28-.3-1.03-.61-2.03-.95-2.99v-.02c-1.23-3.65-2.56-6.85-3.38-9.87-.22-.79-.4-1.58-.53-2.35-.74-4.37-1.68-7.7-3.39-14.24-.06-.22-.12-.46-.18-.69-.53-2.04-.98-4.01-1.51-5.76,0,0,0,0,0,0-1.27-4.24-2.98-7.19-7.41-6.83-3.88.32-6.02,2.8-6.11,9.36-.11,6.56-1.36,6.4.38,15.55,1.73,9.15,1.09,15.38,2.48,19.91,1.38,4.53,2.51,13.67,2.51,13.67-1.93-.45-3.34.64-3.46,1.43-.13.79.29,8.13.48,13.4.17,4.68-2.9,9.78-3.67,13.22,0,.03,0,.06-.02.08-.08.4-.14.78-.15,1.12-.11,3.36,1.94,10.01,4,18.63,2.06,8.61,2.03,18.04,5.56,23.26.7,1.04,1.61,1.94,2.67,2.76,4.28,3.3,11.19,5.37,18.28,10.6,8.85,6.54,15.18,11.41,20.43,13.04,3.75,1.16,5.58,2.4,6.68,4.35.01.01.01.02.01.02.44.77.76,1.66,1.04,2.69.5,1.82,1.83,2.98,4.06,4.9,2.26,1.95,5.45,4.67,9.61,9.64,2.72,3.24,7.22,9.58,12.03,16.63l73.61-34.1Z"/>
        <g>
          <path class="st13" d="M294.22,255.2c.13.77.31,1.56.53,2.35-5.74.27-15.69,5.52-15.08,8.79.76,4,2.51,13.45,5.04,15.14s7.17,2.06,7.17,2.06c-.32.1-.62.22-.91.35,0,0-.01.01-.01.01-.03.02-.07.03-.1.05-1.36.65-2.39,1.64-3.11,2.88h0c-3.17,5.32-1.07,14.91,1.41,19.18,10.31,17.71,4.61,35.06.89,34.02-3.72-1.04-7.94-17.39-7.86-21.48.09-4.09-.77-7.12-.77-7.12-1.58-.14-4.49,1.31-7.11,2.87,0-.03,0-.06.02-.08.77-3.44,3.85-8.54,3.67-13.22-.19-5.27-.6-12.61-.48-13.4.13-.79,1.54-1.89,3.46-1.43,0,0-1.13-9.14-2.51-13.67-1.39-4.53-.75-10.76-2.48-19.91-1.73-9.15-.48-8.99-.38-15.55.1-6.56,2.24-9.04,6.11-9.36,4.43-.36,6.14,2.58,7.41,6.83-.59-.33-1.21-.64-1.86-.89-1.64-.64-3.44-.92-5.09-.27-1.92.75-3.18,3.15-3.77,5.52h0c-.86,3.42-.33,6.78,1.63,5.13,2.22-1.87,7.52-2.69,10.79-3.02,1.71,6.54,2.64,9.88,3.39,14.24Z"/>
          <path class="st13" d="M332.83,390.77c-.28-1.03-.6-1.92-1.04-2.69,0,0,0,0-.01-.02-1.1-1.95-2.93-3.19-6.68-4.35-5.25-1.63-11.58-6.5-20.43-13.04-7.09-5.23-14-7.3-18.28-10.6,4.7,1.26,10.07-1.25,12.71,1.89,3.82,4.53,17.84,9.42,17.84,9.42,14.69,8.94,15.9,19.39,15.9,19.39Z"/>
          <path class="st13" d="M314.39,276.91c-1.46.05-3.02,10.29-2.59,13.7,1.1,8.82,11.84,34.26,6.03,35.02-2.4.31-8.11-11.4-9.65-17.13-4.7-17.4-5.73-24.84-5.73-24.84,0,0-3.58-9.4-4.31-16.21.33.96.64,1.96.95,2.99,1.73,5.96,3.37,10.28,3.37,10.28,0,0,6.33-2.12,9.64-3.52.65-.28,1.44-.34,2.3-.29Z"/>
          <path class="st13" d="M335.7,275.82c-2.99,1.01-5.35,4.73-7.72,5.87-2.91,1.39-10.16-4.16-13.54-4.77,3.5.25,8.35,2.52,11.73,1.47,3.44-1.08,6.48-2.13,9.52-2.57Z"/>
          <path class="st13" d="M356.67,276.52c-.82,1.45-2,5.44-2.11,7.14-.56,8.54,8.96,38.07,3.81,34.1-6.7-5.17-6.61-28.66-12.4-36.24-1.85-2.43-7.13-5.75-8.15-5.9,3.76-.15,10.28,3,12.87,2.38,1.85-.44,3.62-1.26,5.98-1.48Z"/>
          <path class="st13" d="M415.97,372.77c-5.11-3.58-10.36-6.89-13.51-7.86-7.66-2.34-10.56-5.98-12.78-12.67-2.21-6.7-.44-6.95-.04-14.18.4-7.23-5.34-14.68-4.61-12.94.71,1.73.54,14.98-1.64,16.15-2.19,1.17-4.99-7.05-6.92-13.84-1.93-6.79-5.83-39.63-8.37-45.63-.41-.97-.91-1.76-1.47-2.41,1.8,1.22,3.44,2.78,4.76,4.58,2.93,4.01,9.26,8.87,9.68,9.98.42,1.11.58,6.24,2.68,11.2,2.09,4.97,5.49,12.2,6.45,20.63.95,8.42.34,14.79,4.36,20.82,4.03,6.02,7.22,8.6,10.87,16.23,0,0,4.43,4.19,10.54,9.93Z"/>
          <path class="st13" d="M333.15,294.4c1.91,1.24,7.9,22.03,10,26.99,2.1,4.96,2.38,17.98-.05,14.6s-17.73-46.65-9.94-41.6Z"/>
        </g>
        <g>
          <path class="st23" d="M356.7,419.27c-4.1-5.95-7.82-11.13-10.19-13.95-4.17-4.97-7.35-7.69-9.61-9.64-2.23-1.92-3.56-3.09-4.06-4.9-.28-1.03-.6-1.92-1.04-2.69,0,0,0,0-.01-.02-1.1-1.95-2.93-3.19-6.68-4.35-5.25-1.63-11.58-6.5-20.43-13.04-7.09-5.23-14-7.3-18.28-10.6-1.06-.82-1.97-1.72-2.67-2.76-3.53-5.23-3.5-14.65-5.56-23.26-2.06-8.62-4.11-15.27-4-18.63,0-.35.06-.73.15-1.12,0-.03,0-.06.02-.08.77-3.44,3.85-8.54,3.67-13.22-.19-5.27-.6-12.61-.48-13.4.13-.79,1.54-1.89,3.46-1.43,0,0-1.13-9.14-2.51-13.67-1.39-4.53-.75-10.76-2.48-19.91-1.73-9.15-.48-8.99-.38-15.55.1-6.56,2.24-9.04,6.11-9.36,4.43-.36,6.14,2.58,7.41,6.83,0,0,0,0,0,0,.53,1.75.97,3.72,1.51,5.76.06.24.12.47.18.69,1.71,6.54,2.64,9.88,3.39,14.24.13.77.31,1.56.53,2.35.81,3.02,2.15,6.23,3.37,9.87v.02c.34.96.65,1.96.95,2.99,1.73,5.96,3.37,10.28,3.37,10.28,0,0,6.33-2.12,9.64-3.52.65-.28,1.44-.34,2.3-.29.02,0,.05,0,.06,0,3.5.25,8.35,2.52,11.73,1.47,3.44-1.08,6.48-2.13,9.52-2.57h.03c.7-.11,1.39-.18,2.09-.21,3.76-.15,10.28,3,12.87,2.38,1.85-.44,3.62-1.26,5.98-1.48.92-.09,1.94-.09,3.1.06,2.25.3,4.67,1.3,6.87,2.81,1.8,1.22,3.44,2.78,4.76,4.58,2.93,4.01,9.26,8.87,9.68,9.98.42,1.11.58,6.24,2.68,11.2,2.09,4.97,5.49,12.2,6.45,20.63.95,8.42.34,14.79,4.36,20.82,4.03,6.02,7.22,8.6,10.87,16.23,0,0,4.43,4.19,10.54,9.93,0,0,.01.01.02.02,4.25,3.99,9.31,8.72,14.26,13.31"/>
          <path class="st23" d="M280.97,286.15c1.51,6.32,2.81,14.31,2.63,17.79-.18,3.48,3.08,14.24,2.42,19.26"/>
          <path class="st23" d="M285.42,290.35s3.21-6.03,6.47-6.81c3.26-.78,7.01.55,10.55.11,3.54-.44,6.52-3.85,9.68-5.25"/>
          <path class="st23" d="M282.4,266.71s5.42-3.59,9-2.15"/>
          <path class="st23" d="M286.23,262.83s1.7-.93,4.69-.27"/>
          <path class="st23" d="M280.98,247.89s2.84-1.49,6.09-1.46"/>
          <path class="st23" d="M274.32,314.21s3.38-2.78,4.87-3.34"/>
          <path class="st23" d="M285.79,317.68s-1.43,4.1-1.46,5.93"/>
          <path class="st23" d="M277.27,232.38s.83,7.53,1.9,7.97c1.07.43,8.3-.65,8.58-2.05.27-1.4-.9-6.79-.9-6.79,0,0-5.98-6.26-9.58.87Z"/>
          <path class="st23" d="M277.99,300.99s5.16-4.36,4.29-8.64c-.87-4.27-2.59-3.82-4.79-3.32"/>
          <path class="st23" d="M371.88,288.72c1.79,6.66,4.55,26.65,5.04,29.57.5,2.92,2.44,10.22,2.44,10.22"/>
          <path class="st23" d="M326.27,283.41c8.52,7.69,1.36,5.71,15.88,48.65"/>
          <path class="st23" d="M405.43,362.83s-6.64-3.02-8.2-5.28"/>
          <path class="st23" d="M326.76,379.46c2.34,2.39,4.87,8.24,5.02,8.6.01.01.01.02.01.02"/>
        </g>
      </g>
    </g>
  </g>
</svg>