<?xml version="1.0" encoding="UTF-8"?>
<svg xmlns="http://www.w3.org/2000/svg" version="1.1" viewBox="0 0 463.91 420.55">
  <!-- Generator: Adobe Illustrator 29.0.0, SVG Export Plug-In . SVG Version: 2.1.0 Build 186)  -->
  <defs>
    <style>
      .st0, .st1, .st2, .st3, .st4 {
        fill: none;
      }

      .st0, .st1, .st2, .st5, .st6, .st7, .st8, .st4, .st9, .st10 {
        stroke-miterlimit: 10;
      }

      .st0, .st3, .st11, .st5, .st12, .st6, .st7, .st8, .st9, .st10 {
        stroke: #263238;
      }

      .st1, .st2 {
        stroke: #000;
      }

      .st13 {
        font-family: BebasNeueRegular, BebasNeueRegular;
        font-size: 14.76px;
      }

      .st13, .st9, .st14 {
        fill: #fff;
      }

      .st15, .st11, .st12, .st8, .st10 {
        fill: #263238;
      }

      .st2, .st16 {
        opacity: .3;
      }

      .st3 {
        stroke-width: .82px;
      }

      .st3, .st11, .st12 {
        stroke-linecap: round;
        stroke-linejoin: round;
      }

      .st11 {
        stroke-width: .73px;
      }

      .st5 {
        fill: gray;
      }

      .st12 {
        stroke-width: .88px;
      }

      .st6, .st17 {
        fill: #92e3a9;
      }

      .st7 {
        fill: #16a34a;
      }

      .st4 {
        stroke: #787878;
      }

      .st14 {
        opacity: .7;
      }

      .st10 {
        stroke-width: 1.69px;
      }
    </style>
  </defs>
  <g id="Background_Simple">
    <g>
      <path class="st17" d="M459.32,240.35s3.11-120.92-68.14-177.65c-62.89-50.08-151.05-59.2-211.98.57-21.71,21.3-34.1,57.81-61.06,72.86-30.23,16.87-70.85,27.75-92.57,82.51-21.71,54.77-.59,117.09,44.73,144.74,45.32,27.64,109.51-16.95,171.82-29.64,62.31-12.69,207.84,56.73,217.2-93.38Z"/>
      <path class="st14" d="M459.32,240.35s3.11-120.92-68.14-177.65c-62.89-50.08-151.05-59.2-211.98.57-21.71,21.3-34.1,57.81-61.06,72.86-30.23,16.87-70.85,27.75-92.57,82.51-21.71,54.77-.59,117.09,44.73,144.74,45.32,27.64,109.51-16.95,171.82-29.64,62.31-12.69,207.84,56.73,217.2-93.38Z"/>
    </g>
  </g>
  <g id="Clouds">
    <path class="st2" d="M372.21,31.66s0-26.39-30.41-26.97c-25.88-.49-26.97,20.08-29.83,29.83-2.87,9.75-7.46,0-18.36,2.3-10.9,2.3-10.9,13.2-12.62,20.08-1.72,6.88-9.18-1.15-17.21,1.15-8.03,2.29-12.05,10.9-13.77,14.34-1.72,3.44-13.56-1.76-20.53.78s-14.47,13.57-14.47,13.57h203.68s8.03-18.93-5.74-31.56c-13.77-12.62-22.95-4.59-31.56-8.61s-9.18-14.92-9.18-14.92Z"/>
    <path class="st2" d="M95.98,132.06s0-16.11-18.57-16.46c-15.8-.3-16.46,12.26-18.22,18.22-1.75,5.95-4.55,0-11.21,1.4s-6.66,8.06-7.71,12.26c-1.05,4.2-5.6-.7-10.51.7s-7.36,6.66-8.41,8.76c-1.05,2.1-8.28-1.08-12.54.48-4.26,1.55-8.83,8.28-8.83,8.28h124.35s4.9-11.56-3.5-19.27c-8.41-7.71-14.01-2.8-19.27-5.25-5.25-2.45-5.6-9.11-5.6-9.11Z"/>
  </g>
  <g id="Buildings">
    <g class="st16">
      <g>
        <rect class="st1" x="72.13" y="260.83" width="10" height="8.83"/>
        <rect class="st1" x="61.32" y="266.18" width="4.06" height="3.48"/>
        <polyline class="st1" points="472.29 316.58 434.38 316.58 434.38 246.52 436.91 246.52 436.91 239.27 348.07 239.27 348.07 246.52 351.15 246.52 351.15 350.71 327.84 350.71 327.84 127.18 247.94 127.18 247.94 296.23 218.73 296.23 218.73 277.51 226.38 277.51 226.38 269.6 162.49 269.6 162.49 156.19 166.63 156.19 166.63 150.26 89.08 150.26 89.08 156.19 94.64 156.19 94.64 269.79 33.36 269.79 33.36 351.04 1.18 351.04"/>
        <rect class="st1" x="244.38" y="124.74" width="86.64" height="2.43"/>
      </g>
      <g>
        <rect class="st1" x="101.58" y="162.79" width="9.76" height="9.15"/>
        <rect class="st1" x="115.9" y="162.79" width="9.76" height="9.15"/>
        <rect class="st1" x="130.21" y="162.79" width="9.76" height="9.15"/>
        <rect class="st1" x="144.52" y="162.79" width="9.76" height="9.15"/>
        <rect class="st1" x="101.58" y="177.29" width="9.76" height="9.15"/>
        <rect class="st1" x="115.9" y="177.29" width="9.76" height="9.15"/>
        <rect class="st1" x="130.21" y="177.29" width="9.76" height="9.15"/>
        <rect class="st1" x="144.52" y="177.29" width="9.76" height="9.15"/>
        <rect class="st1" x="101.58" y="191.8" width="9.76" height="9.15"/>
        <rect class="st1" x="115.9" y="191.8" width="9.76" height="9.15"/>
        <rect class="st1" x="130.21" y="191.8" width="9.76" height="9.15"/>
        <rect class="st1" x="144.52" y="191.8" width="9.76" height="9.15"/>
        <rect class="st1" x="101.58" y="206.3" width="9.76" height="9.15"/>
        <rect class="st1" x="115.9" y="206.3" width="9.76" height="9.15"/>
        <rect class="st1" x="130.21" y="206.3" width="9.76" height="9.15"/>
        <rect class="st1" x="144.52" y="206.3" width="9.76" height="9.15"/>
        <rect class="st1" x="101.58" y="220.81" width="9.76" height="9.15"/>
        <rect class="st1" x="115.9" y="220.81" width="9.76" height="9.15"/>
        <rect class="st1" x="130.21" y="220.81" width="9.76" height="9.15"/>
        <rect class="st1" x="144.52" y="220.81" width="9.76" height="9.15"/>
        <rect class="st1" x="101.58" y="235.31" width="9.76" height="9.15"/>
        <rect class="st1" x="115.9" y="235.31" width="9.76" height="9.15"/>
        <rect class="st1" x="130.21" y="235.31" width="9.76" height="9.15"/>
        <rect class="st1" x="144.52" y="235.31" width="9.76" height="9.15"/>
        <rect class="st1" x="101.58" y="249.82" width="9.76" height="9.15"/>
        <rect class="st1" x="115.9" y="249.82" width="9.76" height="9.15"/>
        <rect class="st1" x="130.21" y="249.82" width="9.76" height="9.15"/>
        <rect class="st1" x="144.52" y="249.82" width="9.76" height="9.15"/>
        <rect class="st1" x="101.58" y="264.32" width="9.76" height="9.15"/>
        <rect class="st1" x="115.9" y="264.32" width="9.76" height="9.15"/>
        <rect class="st1" x="130.21" y="264.32" width="9.76" height="9.15"/>
        <rect class="st1" x="144.52" y="264.32" width="9.76" height="9.15"/>
      </g>
      <g>
        <rect class="st1" x="101.58" y="277.59" width="9.76" height="9.15"/>
        <rect class="st1" x="115.9" y="277.59" width="9.76" height="9.15"/>
        <rect class="st1" x="130.21" y="277.59" width="9.76" height="9.15"/>
        <rect class="st1" x="144.52" y="277.59" width="9.76" height="9.15"/>
        <rect class="st1" x="101.58" y="292.1" width="9.76" height="9.15"/>
        <rect class="st1" x="115.9" y="292.1" width="9.76" height="9.15"/>
        <rect class="st1" x="130.21" y="292.1" width="9.76" height="9.15"/>
        <rect class="st1" x="144.52" y="292.1" width="9.76" height="9.15"/>
        <rect class="st1" x="101.58" y="306.6" width="9.76" height="9.15"/>
        <rect class="st1" x="115.9" y="306.6" width="9.76" height="9.15"/>
        <rect class="st1" x="130.21" y="306.6" width="9.76" height="9.15"/>
        <rect class="st1" x="144.52" y="306.6" width="9.76" height="9.15"/>
        <rect class="st1" x="101.58" y="321.11" width="9.76" height="9.15"/>
        <rect class="st1" x="115.9" y="321.11" width="9.76" height="9.15"/>
        <rect class="st1" x="130.21" y="321.11" width="9.76" height="9.15"/>
        <rect class="st1" x="144.52" y="321.11" width="9.76" height="9.15"/>
        <rect class="st1" x="101.58" y="335.61" width="9.76" height="9.15"/>
        <rect class="st1" x="115.9" y="335.61" width="9.76" height="9.15"/>
        <rect class="st1" x="130.21" y="335.61" width="9.76" height="9.15"/>
        <rect class="st1" x="144.52" y="335.61" width="9.76" height="9.15"/>
        <rect class="st1" x="101.58" y="350.12" width="9.76" height="9.15"/>
        <rect class="st1" x="115.9" y="350.12" width="9.76" height="9.15"/>
        <rect class="st1" x="130.21" y="350.12" width="9.76" height="9.15"/>
        <rect class="st1" x="144.52" y="350.12" width="9.76" height="9.15"/>
        <rect class="st1" x="101.58" y="364.62" width="9.76" height="9.15"/>
        <rect class="st1" x="115.9" y="364.62" width="9.76" height="9.15"/>
        <rect class="st1" x="130.21" y="364.62" width="9.76" height="9.15"/>
        <rect class="st1" x="144.52" y="364.62" width="9.76" height="9.15"/>
        <rect class="st1" x="101.58" y="379.13" width="9.76" height="9.15"/>
        <rect class="st1" x="115.9" y="379.13" width="9.76" height="9.15"/>
        <rect class="st1" x="130.21" y="379.13" width="9.76" height="9.15"/>
        <rect class="st1" x="144.52" y="379.13" width="9.76" height="9.15"/>
      </g>
      <g>
        <rect class="st1" x="157.49" y="277.59" width="9.76" height="9.15"/>
        <rect class="st1" x="171.8" y="277.59" width="9.76" height="9.15"/>
        <rect class="st1" x="186.12" y="277.59" width="9.76" height="9.15"/>
        <rect class="st1" x="200.43" y="277.59" width="9.76" height="9.15"/>
        <rect class="st1" x="157.49" y="292.1" width="9.76" height="9.15"/>
        <rect class="st1" x="171.8" y="292.1" width="9.76" height="9.15"/>
        <rect class="st1" x="186.12" y="292.1" width="9.76" height="9.15"/>
        <rect class="st1" x="200.43" y="292.1" width="9.76" height="9.15"/>
        <rect class="st1" x="157.49" y="306.6" width="9.76" height="9.15"/>
        <rect class="st1" x="171.8" y="306.6" width="9.76" height="9.15"/>
        <rect class="st1" x="186.12" y="306.6" width="9.76" height="9.15"/>
        <rect class="st1" x="200.43" y="306.6" width="9.76" height="9.15"/>
        <rect class="st1" x="157.49" y="321.11" width="9.76" height="9.15"/>
        <rect class="st1" x="171.8" y="321.11" width="9.76" height="9.15"/>
        <rect class="st1" x="186.12" y="321.11" width="9.76" height="9.15"/>
        <rect class="st1" x="200.43" y="321.11" width="9.76" height="9.15"/>
        <rect class="st1" x="157.49" y="335.61" width="9.76" height="9.15"/>
        <rect class="st1" x="171.8" y="335.61" width="9.76" height="9.15"/>
        <rect class="st1" x="186.12" y="335.61" width="9.76" height="9.15"/>
        <rect class="st1" x="200.43" y="335.61" width="9.76" height="9.15"/>
        <rect class="st1" x="157.49" y="350.12" width="9.76" height="9.15"/>
        <rect class="st1" x="171.8" y="350.12" width="9.76" height="9.15"/>
        <rect class="st1" x="186.12" y="350.12" width="9.76" height="9.15"/>
        <rect class="st1" x="200.43" y="350.12" width="9.76" height="9.15"/>
        <rect class="st1" x="157.49" y="364.62" width="9.76" height="9.15"/>
        <rect class="st1" x="171.8" y="364.62" width="9.76" height="9.15"/>
        <rect class="st1" x="186.12" y="364.62" width="9.76" height="9.15"/>
        <rect class="st1" x="200.43" y="364.62" width="9.76" height="9.15"/>
        <rect class="st1" x="157.49" y="379.13" width="9.76" height="9.15"/>
        <rect class="st1" x="171.8" y="379.13" width="9.76" height="9.15"/>
        <rect class="st1" x="186.12" y="379.13" width="9.76" height="9.15"/>
        <rect class="st1" x="200.43" y="379.13" width="9.76" height="9.15"/>
      </g>
      <g>
        <rect class="st1" x="44.89" y="277.59" width="9.76" height="9.15"/>
        <rect class="st1" x="59.2" y="277.59" width="9.76" height="9.15"/>
        <rect class="st1" x="73.52" y="277.59" width="9.76" height="9.15"/>
        <rect class="st1" x="87.83" y="277.59" width="9.76" height="9.15"/>
        <rect class="st1" x="44.89" y="292.1" width="9.76" height="9.15"/>
        <rect class="st1" x="59.2" y="292.1" width="9.76" height="9.15"/>
        <rect class="st1" x="73.52" y="292.1" width="9.76" height="9.15"/>
        <rect class="st1" x="87.83" y="292.1" width="9.76" height="9.15"/>
        <rect class="st1" x="44.89" y="306.6" width="9.76" height="9.15"/>
        <rect class="st1" x="59.2" y="306.6" width="9.76" height="9.15"/>
        <rect class="st1" x="73.52" y="306.6" width="9.76" height="9.15"/>
        <rect class="st1" x="87.83" y="306.6" width="9.76" height="9.15"/>
        <rect class="st1" x="44.89" y="321.11" width="9.76" height="9.15"/>
        <rect class="st1" x="59.2" y="321.11" width="9.76" height="9.15"/>
        <rect class="st1" x="73.52" y="321.11" width="9.76" height="9.15"/>
        <rect class="st1" x="87.83" y="321.11" width="9.76" height="9.15"/>
        <rect class="st1" x="44.89" y="335.61" width="9.76" height="9.15"/>
        <rect class="st1" x="59.2" y="335.61" width="9.76" height="9.15"/>
        <rect class="st1" x="73.52" y="335.61" width="9.76" height="9.15"/>
        <rect class="st1" x="87.83" y="335.61" width="9.76" height="9.15"/>
        <rect class="st1" x="44.89" y="350.12" width="9.76" height="9.15"/>
        <rect class="st1" x="59.2" y="350.12" width="9.76" height="9.15"/>
        <rect class="st1" x="73.52" y="350.12" width="9.76" height="9.15"/>
        <rect class="st1" x="87.83" y="350.12" width="9.76" height="9.15"/>
        <rect class="st1" x="44.89" y="364.62" width="9.76" height="9.15"/>
        <rect class="st1" x="59.2" y="364.62" width="9.76" height="9.15"/>
        <rect class="st1" x="73.52" y="364.62" width="9.76" height="9.15"/>
        <rect class="st1" x="87.83" y="364.62" width="9.76" height="9.15"/>
        <rect class="st1" x="44.89" y="379.13" width="9.76" height="9.15"/>
        <rect class="st1" x="59.2" y="379.13" width="9.76" height="9.15"/>
        <rect class="st1" x="73.52" y="379.13" width="9.76" height="9.15"/>
        <rect class="st1" x="87.83" y="379.13" width="9.76" height="9.15"/>
      </g>
      <g>
        <rect class="st1" x="364.63" y="249.16" width="9.76" height="9.15"/>
        <rect class="st1" x="378.94" y="249.16" width="9.76" height="9.15"/>
        <rect class="st1" x="393.26" y="249.16" width="9.76" height="9.15"/>
        <rect class="st1" x="407.57" y="249.16" width="9.76" height="9.15"/>
        <rect class="st1" x="364.63" y="263.67" width="9.76" height="9.15"/>
        <rect class="st1" x="378.94" y="263.67" width="9.76" height="9.15"/>
        <rect class="st1" x="393.26" y="263.67" width="9.76" height="9.15"/>
        <rect class="st1" x="407.57" y="263.67" width="9.76" height="9.15"/>
        <rect class="st1" x="364.63" y="278.17" width="9.76" height="9.15"/>
        <rect class="st1" x="378.94" y="278.17" width="9.76" height="9.15"/>
        <rect class="st1" x="393.26" y="278.17" width="9.76" height="9.15"/>
        <rect class="st1" x="407.57" y="278.17" width="9.76" height="9.15"/>
        <rect class="st1" x="364.63" y="292.68" width="9.76" height="9.15"/>
        <rect class="st1" x="378.94" y="292.68" width="9.76" height="9.15"/>
        <rect class="st1" x="393.26" y="292.68" width="9.76" height="9.15"/>
        <rect class="st1" x="407.57" y="292.68" width="9.76" height="9.15"/>
        <rect class="st1" x="364.63" y="307.18" width="9.76" height="9.15"/>
        <rect class="st1" x="378.94" y="307.18" width="9.76" height="9.15"/>
        <rect class="st1" x="393.26" y="307.18" width="9.76" height="9.15"/>
        <rect class="st1" x="407.57" y="307.18" width="9.76" height="9.15"/>
        <rect class="st1" x="364.63" y="321.69" width="9.76" height="9.15"/>
        <rect class="st1" x="378.94" y="321.69" width="9.76" height="9.15"/>
        <rect class="st1" x="393.26" y="321.69" width="9.76" height="9.15"/>
        <rect class="st1" x="407.57" y="321.69" width="9.76" height="9.15"/>
        <rect class="st1" x="364.63" y="336.19" width="9.76" height="9.15"/>
        <rect class="st1" x="378.94" y="336.19" width="9.76" height="9.15"/>
        <rect class="st1" x="393.26" y="336.19" width="9.76" height="9.15"/>
        <rect class="st1" x="407.57" y="336.19" width="9.76" height="9.15"/>
        <rect class="st1" x="364.63" y="350.7" width="9.76" height="9.15"/>
        <rect class="st1" x="378.94" y="350.7" width="9.76" height="9.15"/>
        <rect class="st1" x="393.26" y="350.7" width="9.76" height="9.15"/>
        <rect class="st1" x="407.57" y="350.7" width="9.76" height="9.15"/>
      </g>
      <g>
        <line class="st1" x1="255.47" y1="132.46" x2="255.47" y2="397.51"/>
        <line class="st1" x1="265.15" y1="132.46" x2="265.15" y2="397.51"/>
        <line class="st1" x1="274.83" y1="132.46" x2="274.83" y2="397.51"/>
        <line class="st1" x1="284.5" y1="132.46" x2="284.5" y2="397.51"/>
        <line class="st1" x1="294.18" y1="132.46" x2="294.18" y2="397.51"/>
        <line class="st1" x1="303.86" y1="132.46" x2="303.86" y2="397.51"/>
        <line class="st1" x1="313.54" y1="132.46" x2="313.54" y2="397.51"/>
        <line class="st1" x1="323.22" y1="132.46" x2="323.22" y2="397.51"/>
      </g>
    </g>
  </g>
  <g id="Plants">
    <path class="st15" d="M6.95,347.84c3.33.79,7.54.2,8.83-.02,0,1.79.04,3.68.21,5.63.24,2.73.64,5.59,1.42,8.48,0,.03.02.07.03.1-.49-.77-1.94-2.89-2.07-3.04-1.83-2.12-6.61-5.13-9.5-3.9-2.08.88-2.69,3.37-1.64,5.27,1.07,1.94,3.62,2.9,5.68,3.2,2.33.34,7.24-1.08,7.63-1.2.77,2.75,1.79,5.5,2.98,8.24.68,1.56,1.4,3.12,2.15,4.66-.45-.66-.85-1.24-.92-1.31-1.83-2.12-6.61-5.13-9.5-3.9-2.08.88-2.69,3.37-1.64,5.27,1.07,1.94,3.62,2.9,5.68,3.2,2.1.31,6.31-.82,7.42-1.14.29.59.58,1.18.88,1.77,1.42,2.83,2.85,5.65,4.17,8.45.47.99.89,1.98,1.31,2.97-.4-.58-.74-1.07-.8-1.14-1.83-2.12-6.61-5.13-9.5-3.9-2.08.88-2.69,3.37-1.64,5.27,1.07,1.94,3.62,2.9,5.68,3.2,2,.29,5.9-.72,7.22-1.08.4,1.03.81,2.05,1.16,3.07.22.7.48,1.35.66,2.07.2.7.39,1.4.58,2.08.32,1.34.66,2.72.94,4.03.2.91.38,1.79.56,2.66-.45-.99-1.38-2.91-1.47-3.06-1.49-2.37-5.76-6.07-8.8-5.3-2.19.56-3.17,2.92-2.42,4.96.76,2.08,3.14,3.41,5.13,4.02,2.2.67,7.07.06,7.68-.02.29,1.46.56,2.87.8,4.22.18,1.02.34,2,.49,2.94h1.95c-.19-1.05-.4-2.14-.62-3.28-.29-1.48-.63-3.05-.99-4.67.37-.15,2.44-.99,4.28-2.01,1.6,1.74,5.71,3.77,6.25,4.03-.56,1.38-1.12,2.71-1.66,3.96-.3.68-.59,1.34-.88,1.98h2.06c.17-.41.35-.83.52-1.26.57-1.39,1.16-2.9,1.75-4.44.59.12,5.41,1.1,7.66.6,2.04-.46,4.51-1.61,5.42-3.63.89-1.97.09-4.41-2.05-5.12-2.97-1-7.5,2.38-9.17,4.63-.1.13-1,1.69-1.55,2.69.24-.63.47-1.25.71-1.9.47-1.29.91-2.6,1.38-4,.2-.68.41-1.38.62-2.07.22-.69.37-1.44.56-2.17.4-1.7.73-3.43,1.02-5.19,1.13.41,5.18,1.82,7.27,1.67,2.08-.15,4.7-.91,5.91-2.77,1.18-1.82.76-4.34-1.25-5.38-2.78-1.44-7.78,1.21-9.76,3.19-.12.12-1.39,1.7-2.07,2.58.17-1.06.34-2.11.47-3.19.39-3.11.68-6.26.99-9.41.09-.96.2-1.92.3-2.89.4.15,5.17,1.93,7.52,1.76,2.08-.15,4.7-.91,5.91-2.77,1.18-1.82.76-4.34-1.25-5.38-2.78-1.44-7.78,1.21-9.76,3.18-.15.15-1.96,2.42-2.4,3.02.22-2.12.47-4.22.79-6.29.44-2.85,1.03-5.63,1.81-8.27.19.07,5.16,1.95,7.56,1.78,2.08-.15,4.7-.91,5.91-2.77,1.18-1.82.76-4.34-1.25-5.38-2.78-1.44-7.78,1.21-9.76,3.18-.13.13-1.51,1.86-2.15,2.7-.09-.05-.07-.04-.16-.08.86-2.82,2.05-5.45,3.29-7.86.71-1.39,1.47-2.69,2.24-3.93.89.44,4.98,2.43,7.16,2.52,2.09.08,4.77-.39,6.17-2.1,1.37-1.67,1.23-4.23-.65-5.48-2.61-1.73-7.86.35-10.05,2.09-.08.07-.63.61-1.23,1.2,0-.13,0-.28.01-.46.09-.14.17-.27.26-.4,1.31-1.97,2.63-3.7,3.82-5.22.68-.86,1.31-1.62,1.91-2.33,1.1-.02,5.53-.15,7.47-1.06,1.89-.89,4.05-2.55,4.51-4.71.45-2.12-.86-4.32-3.1-4.56-3.12-.34-6.82,3.93-7.96,6.49-.1.22-1.24,3.85-1.18,3.85,0,0,.05,0,.07,0-.59.67-1.21,1.39-1.88,2.2-1.21,1.49-2.57,3.18-3.92,5.12-.02-3.01-.56-9.27-4.54-9.65-5.25-.5-6.75,5.5-3.5,8.75,2.28,2.28,5.29,2.59,6.89,2.57-1.01,1.5-2.02,3.12-2.96,4.87-1.3,2.41-2.55,5.01-3.49,7.86-.01.03-.02.07-.03.1.02-.92-.02-3.49-.05-3.68-.36-2.77-2.69-7.92-5.77-8.49-2.22-.41-4.1,1.33-4.28,3.49-.18,2.2,1.42,4.41,2.98,5.8,1.76,1.57,6.64,3.09,7.03,3.21-.87,2.72-1.54,5.58-2.06,8.51-.3,1.68-.55,3.37-.78,5.08-.01-.79-.03-1.5-.04-1.6-.36-2.77-2.69-7.92-5.77-8.49-2.22-.41-4.1,1.33-4.28,3.49-.18,2.2,1.42,4.41,2.98,5.8,1.58,1.41,5.72,2.79,6.81,3.14-.08.66-.17,1.31-.25,1.96-.38,3.14-.74,6.28-1.19,9.35-.16,1.08-.35,2.14-.54,3.2-.01-.71-.03-1.3-.04-1.39-.36-2.77-2.69-7.92-5.77-8.49-2.22-.41-4.1,1.33-4.28,3.49-.18,2.2,1.42,4.41,2.98,5.8,1.51,1.35,5.31,2.66,6.62,3.08-.23,1.08-.46,2.16-.73,3.2-.2.7-.34,1.39-.59,2.09-.22.69-.45,1.38-.66,2.06-.47,1.29-.95,2.63-1.44,3.88-.33.87-.67,1.7-1.01,2.53.17-1.07.46-3.19.46-3.36.04-1.86-.62-4.88-1.93-7,0-.27,0-.55-.05-.82-.34-2.14-2.35-3.73-4.53-3.15-3.03.81-4.95,6.12-5.09,8.92,0,.16.1,1.96.19,3.1-.15-.66-.29-1.3-.46-1.98-.32-1.34-.67-2.67-1.05-4.1-.21-.68-.42-1.37-.63-2.07-.19-.7-.49-1.41-.73-2.12-.6-1.64-1.29-3.27-2.01-4.89,1.17-.28,5.32-1.34,6.98-2.62,1.66-1.27,3.42-3.35,3.4-5.57-.02-2.17-1.76-4.04-4.01-3.8-3.11.34-5.82,5.3-6.38,8.04-.04.17-.22,2.18-.3,3.29-.45-.97-.88-1.95-1.37-2.92-1.39-2.8-2.89-5.6-4.37-8.39-.45-.86-.9-1.71-1.34-2.57.42-.1,5.38-1.25,7.24-2.68,1.66-1.27,3.42-3.35,3.4-5.57-.02-2.17-1.76-4.04-4-3.8-3.12.34-5.82,5.3-6.38,8.04-.04.21-.3,3.1-.33,3.84-.98-1.89-1.94-3.78-2.81-5.68-1.21-2.62-2.24-5.27-3.06-7.9.19-.04,5.37-1.22,7.28-2.69,1.66-1.27,3.42-3.35,3.4-5.57-.02-2.17-1.76-4.04-4-3.8-3.12.34-5.82,5.3-6.38,8.04-.04.18-.24,2.39-.31,3.44-.1.01-.08,0-.18.02-.84-2.83-1.3-5.68-1.59-8.37-.17-1.56-.26-3.05-.3-4.51.99-.12,5.49-.72,7.36-1.85,1.79-1.08,3.76-2.96,3.99-5.16.22-2.15-1.31-4.21-3.56-4.21-3.13,0-6.37,4.63-7.23,7.29-.05.14-.36,1.67-.57,2.78,0-.66-.03-1.34-.03-1.97,0-2.37.15-4.54.3-6.46.09-1.09.2-2.08.31-3,.91-.62,4.53-3.18,5.65-5.01,1.09-1.78,1.98-4.36,1.17-6.42-.8-2.01-3.1-3.13-5.1-2.1-2.78,1.44-3.52,7.04-3.06,9.8.04.24,1.09,3.9,1.14,3.86,0,0,.04-.03.05-.04-.12.88-.24,1.83-.35,2.87-.19,1.92-.39,4.09-.44,6.47-.01.44-.02.89-.02,1.34-1.19-1.84-4.96-7-9.03-5.91-4.93,1.33-3.79,5.69.19,6.64Z"/>
    <path class="st15" d="M77.62,371.98c2.13.51,4.82.12,5.64-.01,0,1.14.02,2.35.14,3.6.15,1.74.41,3.57.91,5.41,0,.02.01.04.02.06-.31-.49-1.24-1.85-1.32-1.94-1.17-1.35-4.22-3.27-6.06-2.49-1.33.56-1.72,2.15-1.05,3.36.68,1.24,2.31,1.85,3.63,2.04,1.49.22,4.62-.69,4.87-.76.49,1.75,1.14,3.51,1.9,5.26.43,1,.9,1.99,1.38,2.98-.29-.42-.54-.79-.59-.84-1.17-1.35-4.22-3.27-6.06-2.49-1.33.56-1.71,2.15-1.05,3.36.68,1.24,2.31,1.85,3.63,2.04,1.34.2,4.03-.53,4.74-.73.19.38.37.76.56,1.13.91,1.81,1.82,3.61,2.66,5.4.3.63.57,1.26.84,1.9-.25-.37-.47-.68-.51-.73-1.17-1.35-4.22-3.27-6.06-2.49-1.33.56-1.72,2.15-1.05,3.36.68,1.24,2.31,1.85,3.63,2.04,1.28.19,3.76-.46,4.61-.69.26.66.52,1.31.74,1.96.14.45.31.86.42,1.32.13.45.25.89.37,1.33.2.85.42,1.74.6,2.57.13.58.24,1.14.36,1.7-.29-.63-.88-1.86-.94-1.95-.95-1.51-3.68-3.88-5.61-3.38-1.4.36-2.02,1.87-1.55,3.17.48,1.33,2,2.18,3.28,2.57,1.4.43,4.51.04,4.9-.01.19.93.36,1.83.51,2.69.11.65.22,1.28.31,1.88h1.25c-.12-.67-.25-1.37-.4-2.1-.19-.94-.4-1.95-.63-2.98.23-.09,1.56-.63,2.74-1.29,1.02,1.11,3.65,2.41,3.99,2.57-.36.88-.71,1.73-1.06,2.53-.19.44-.38.86-.56,1.27h1.32c.11-.26.22-.53.33-.8.37-.89.74-1.85,1.11-2.84.38.08,3.46.7,4.89.38,1.3-.29,2.88-1.03,3.46-2.32.57-1.26.06-2.81-1.31-3.27-1.9-.64-4.79,1.52-5.85,2.95-.06.08-.64,1.08-.99,1.71.15-.4.3-.8.45-1.21.3-.82.58-1.66.88-2.55.13-.44.26-.88.4-1.32.14-.44.24-.92.36-1.39.26-1.08.47-2.19.65-3.32.72.26,3.3,1.16,4.64,1.07,1.33-.09,3-.58,3.77-1.77.75-1.16.49-2.77-.8-3.43-1.78-.92-4.97.77-6.23,2.03-.08.08-.89,1.08-1.32,1.65.11-.68.22-1.35.3-2.04.25-1.98.43-4,.63-6.01.06-.62.13-1.23.19-1.84.26.1,3.3,1.23,4.8,1.12,1.33-.09,3-.58,3.77-1.77.75-1.16.49-2.77-.8-3.43-1.78-.92-4.97.77-6.23,2.03-.1.09-1.25,1.54-1.53,1.93.14-1.35.3-2.7.5-4.02.28-1.82.66-3.59,1.15-5.28.12.05,3.29,1.24,4.83,1.13,1.33-.09,3-.58,3.77-1.77.75-1.16.49-2.77-.8-3.43-1.78-.92-4.96.77-6.23,2.03-.08.08-.97,1.19-1.38,1.72-.06-.03-.05-.02-.1-.05.55-1.8,1.31-3.48,2.1-5.02.46-.89.94-1.72,1.43-2.51.57.28,3.18,1.55,4.57,1.61,1.33.05,3.05-.25,3.94-1.34.88-1.07.79-2.7-.41-3.5-1.67-1.11-5.02.22-6.42,1.34-.05.04-.4.39-.78.77,0-.08,0-.18,0-.29.06-.09.11-.18.17-.26.84-1.26,1.68-2.36,2.44-3.33.43-.55.84-1.04,1.22-1.49.7-.01,3.53-.1,4.77-.68,1.21-.57,2.59-1.63,2.88-3.01.29-1.35-.55-2.76-1.98-2.91-1.99-.21-4.35,2.51-5.08,4.14-.06.14-.79,2.46-.75,2.46,0,0,.03,0,.04,0-.38.43-.77.89-1.2,1.4-.77.95-1.64,2.03-2.5,3.27-.02-1.92-.36-5.92-2.9-6.16-3.35-.32-4.31,3.51-2.23,5.59,1.46,1.46,3.38,1.65,4.4,1.64-.64.96-1.29,1.99-1.89,3.11-.83,1.54-1.63,3.2-2.23,5.02,0,.02-.01.04-.02.06.01-.59-.02-2.23-.03-2.35-.23-1.77-1.71-5.06-3.68-5.42-1.42-.26-2.62.85-2.73,2.23-.12,1.41.91,2.82,1.9,3.7,1.12,1,4.24,1.97,4.49,2.05-.56,1.74-.98,3.56-1.32,5.43-.19,1.07-.35,2.15-.5,3.24,0-.51-.02-.96-.03-1.02-.23-1.77-1.71-5.06-3.68-5.42-1.42-.26-2.62.85-2.73,2.23-.12,1.41.91,2.82,1.9,3.7,1.01.9,3.65,1.78,4.35,2.01-.05.42-.11.84-.16,1.25-.24,2.01-.47,4.01-.76,5.97-.1.69-.23,1.37-.35,2.04,0-.45-.02-.83-.02-.89-.23-1.77-1.71-5.06-3.68-5.42-1.42-.26-2.62.85-2.73,2.23-.12,1.41.91,2.82,1.9,3.7.96.86,3.39,1.7,4.22,1.97-.15.69-.29,1.38-.46,2.04-.13.45-.22.89-.37,1.33-.14.44-.28.88-.42,1.32-.3.83-.61,1.68-.92,2.48-.21.56-.43,1.08-.64,1.61.11-.69.29-2.03.29-2.15.03-1.19-.39-3.12-1.23-4.47,0-.18,0-.35-.03-.52-.22-1.37-1.5-2.38-2.89-2.01-1.93.51-3.16,3.91-3.25,5.69,0,.11.06,1.25.12,1.98-.1-.42-.19-.83-.29-1.26-.2-.86-.43-1.7-.67-2.61-.13-.44-.27-.88-.4-1.32-.12-.44-.31-.9-.47-1.35-.38-1.05-.82-2.09-1.29-3.12.75-.18,3.4-.85,4.46-1.67,1.06-.81,2.18-2.14,2.17-3.55-.01-1.38-1.12-2.58-2.56-2.42-1.99.22-3.71,3.38-4.08,5.13-.02.11-.14,1.39-.19,2.1-.28-.62-.56-1.24-.87-1.86-.89-1.79-1.84-3.57-2.79-5.36-.29-.55-.57-1.09-.86-1.64.27-.06,3.43-.8,4.62-1.71,1.06-.81,2.18-2.14,2.17-3.55,0-1.38-1.12-2.58-2.56-2.42-1.99.22-3.71,3.38-4.08,5.13-.03.13-.19,1.98-.21,2.45-.63-1.21-1.24-2.41-1.8-3.63-.77-1.68-1.43-3.36-1.95-5.04.12-.03,3.43-.78,4.65-1.72,1.06-.81,2.18-2.14,2.17-3.55,0-1.38-1.12-2.58-2.56-2.42-1.99.22-3.71,3.38-4.08,5.13-.02.11-.15,1.52-.2,2.19-.06,0-.05,0-.11.01-.54-1.81-.83-3.63-1.02-5.34-.11-.99-.16-1.95-.19-2.88.63-.08,3.51-.46,4.7-1.18,1.14-.69,2.4-1.89,2.55-3.29.14-1.38-.83-2.69-2.28-2.69-2,0-4.06,2.96-4.61,4.65-.03.09-.23,1.07-.37,1.78,0-.42-.02-.85-.02-1.26,0-1.51.1-2.9.19-4.12.06-.7.13-1.33.2-1.91.58-.4,2.89-2.03,3.6-3.2.69-1.14,1.26-2.78.74-4.1-.51-1.29-1.98-2-3.26-1.34-1.78.92-2.24,4.5-1.95,6.26.03.15.7,2.49.73,2.47,0,0,.03-.02.03-.02-.08.56-.16,1.17-.23,1.83-.12,1.23-.25,2.61-.28,4.13,0,.28-.01.57-.02.85-.76-1.17-3.17-4.47-5.77-3.77-3.15.85-2.42,3.63.12,4.24Z"/>
    <path class="st15" d="M64.63,348.21c-.08.08-.16.16-.23.23.05-.08.1-.15.15-.23.03,0,.06,0,.08,0Z"/>
  </g>
  <g id="Device">
    <g>
      <rect class="st7" x="75.45" y="35.35" width="175.72" height="341.96" rx="20" ry="20"/>
      <path class="st9" d="M251.17,66.84v-10.4c0-11.65-9.44-21.09-21.09-21.09H96.53c-11.65,0-21.09,9.44-21.09,21.09v10.4h175.72Z"/>
      <path class="st9" d="M76.37,362.41c2.64,8.63,10.67,14.9,20.16,14.9h133.55c9.49,0,17.52-6.28,20.16-14.9H76.37Z"/>
      <g>
        <g>
          <rect class="st3" x="214.18" y="47.4" width="16.67" height="9.14"/>
          <rect class="st11" x="214.18" y="47.4" width="13" height="9.14"/>
          <rect class="st11" x="230.81" y="49.96" width="2.35" height="4.03"/>
        </g>
        <g>
          <rect class="st12" x="90.99" y="50.24" width="3.06" height="5.24"/>
          <rect class="st12" x="95.79" y="48.4" width="3.06" height="7.08"/>
          <rect class="st12" x="100.6" y="46.22" width="3.06" height="9.25"/>
        </g>
      </g>
      <path class="st10" d="M234.23,32.54H89.96c-9.69,0-17.55,7.86-17.55,17.55v315.16c0,9.69,7.86,17.55,17.55,17.55h144.27c9.69,0,17.55-7.86,17.55-17.55V50.09c0-9.69-7.86-17.55-17.55-17.55ZM243.98,356.88c0,9.69-7.86,17.55-17.55,17.55H97.76c-9.69,0-17.55-7.86-17.55-17.55V58.46c0-9.69,7.86-17.55,17.55-17.55h23.94l1.49,6.92c.9,4.16,4.58,7.13,8.83,7.13h64.05c4.26,0,7.93-2.97,8.83-7.13l1.49-6.92h20.04c9.69,0,17.55,7.86,17.55,17.55v298.42Z"/>
      <g>
        <rect class="st9" x="97.59" y="87.93" width="127.93" height="258.67" rx="8.33" ry="8.33"/>
        <g>
          <path class="st15" d="M108.88,155.55v1.03h-2.53v3.68h3.1v1.05h-4.25v-10.34h4.25v1.05h-3.1v3.53h2.53Z"/>
          <path class="st15" d="M114.33,161.3h-1.11l-1.71-8.23v8.24h-1v-10.34h1.61l1.7,8.26,1.64-8.26h1.61v10.34h-1.09v-8.31l-1.64,8.3Z"/>
          <path class="st15" d="M119.41,159.23l-.4,2.08h-1.06l1.98-10.34h1.67l1.98,10.34h-1.15l-.4-2.08h-2.61ZM119.56,158.24h2.3l-1.17-5.97-1.14,5.97Z"/>
          <path class="st15" d="M125.62,150.97v10.34h-1.15v-10.34h1.15Z"/>
          <path class="st15" d="M126.8,161.31v-10.34h1.15v9.29h2.95v1.05h-4.11Z"/>
          <path class="st15" d="M135.23,159.23l-.4,2.08h-1.06l1.98-10.34h1.67l1.98,10.34h-1.15l-.4-2.08h-2.61ZM135.38,158.24h2.3l-1.17-5.97-1.14,5.97Z"/>
          <path class="st15" d="M142.71,150.97c1.61,0,2.35.97,2.35,2.57v5.21c0,1.58-.74,2.56-2.35,2.56h-2.42v-10.34h2.42ZM142.7,160.26c.83,0,1.23-.52,1.23-1.46v-5.32c0-.95-.4-1.46-1.24-1.46h-1.24v8.24h1.26Z"/>
          <path class="st15" d="M148.56,150.97c1.61,0,2.35.97,2.35,2.57v5.21c0,1.58-.74,2.56-2.35,2.56h-2.42v-10.34h2.42ZM148.55,160.26c.83,0,1.23-.52,1.23-1.46v-5.32c0-.95-.4-1.46-1.24-1.46h-1.24v8.24h1.26Z"/>
          <path class="st15" d="M154.29,150.97c1.62,0,2.3.83,2.3,2.36v.84c0,1.14-.4,1.85-1.28,2.13.95.28,1.3,1.05,1.3,2.16v1.61c0,.46.01.89.21,1.24h-1.17c-.13-.3-.19-.56-.19-1.26v-1.62c0-1.17-.55-1.54-1.51-1.54h-.81v4.42h-1.15v-10.34h2.3ZM153.99,155.85c.92,0,1.46-.3,1.46-1.42v-.99c0-.93-.34-1.42-1.2-1.42h-1.12v3.83h.86Z"/>
          <path class="st15" d="M161.48,155.55v1.03h-2.53v3.68h3.1v1.05h-4.25v-10.34h4.25v1.05h-3.1v3.53h2.53Z"/>
          <path class="st15" d="M167.59,153.46v.28h-1.09v-.34c0-.93-.35-1.48-1.18-1.48s-1.18.55-1.18,1.46c0,2.32,3.47,2.54,3.47,5.45,0,1.57-.75,2.58-2.33,2.58s-2.32-1.02-2.32-2.58v-.59h1.08v.65c0,.93.38,1.48,1.21,1.48s1.21-.55,1.21-1.48c0-2.3-3.46-2.53-3.46-5.43,0-1.59.74-2.58,2.29-2.58s2.3,1.02,2.3,2.58Z"/>
          <path class="st15" d="M173.08,153.46v.28h-1.09v-.34c0-.93-.35-1.48-1.18-1.48s-1.18.55-1.18,1.46c0,2.32,3.47,2.54,3.47,5.45,0,1.57-.75,2.58-2.33,2.58s-2.32-1.02-2.32-2.58v-.59h1.08v.65c0,.93.38,1.48,1.21,1.48s1.21-.55,1.21-1.48c0-2.3-3.46-2.53-3.46-5.43,0-1.59.74-2.58,2.29-2.58s2.3,1.02,2.3,2.58Z"/>
        </g>
        <g>
          <path class="st15" d="M107.47,202.64c1.62,0,2.32.96,2.32,2.53v1.24c0,1.64-.77,2.5-2.41,2.5h-1.02v4.08h-1.15v-10.34h2.26ZM107.38,207.87c.86,0,1.27-.4,1.27-1.39v-1.37c0-.95-.34-1.42-1.18-1.42h-1.11v4.18h1.02Z"/>
          <path class="st15" d="M111.66,210.89l-.4,2.08h-1.06l1.98-10.34h1.67l1.98,10.34h-1.15l-.4-2.08h-2.61ZM111.81,209.9h2.3l-1.17-5.97-1.14,5.97Z"/>
          <path class="st15" d="M121.2,205.12v.28h-1.09v-.34c0-.93-.35-1.48-1.18-1.48s-1.18.55-1.18,1.46c0,2.32,3.47,2.54,3.47,5.45,0,1.57-.75,2.58-2.33,2.58s-2.32-1.02-2.32-2.58v-.59h1.08v.65c0,.93.38,1.48,1.21,1.48s1.21-.55,1.21-1.48c0-2.3-3.46-2.53-3.46-5.43,0-1.59.74-2.58,2.29-2.58s2.3,1.02,2.3,2.58Z"/>
          <path class="st15" d="M126.69,205.12v.28h-1.09v-.34c0-.93-.35-1.48-1.18-1.48s-1.18.55-1.18,1.46c0,2.32,3.47,2.54,3.47,5.45,0,1.57-.75,2.58-2.33,2.58s-2.32-1.02-2.32-2.58v-.59h1.08v.65c0,.93.38,1.48,1.21,1.48s1.21-.55,1.21-1.48c0-2.3-3.46-2.53-3.46-5.43,0-1.59.74-2.58,2.29-2.58s2.3,1.02,2.3,2.58Z"/>
          <path class="st15" d="M130.45,212.98h-1.58l-1.42-10.34h1.12l1.21,8.8,1.15-8.79h1.14l1.14,8.8,1.17-8.82h1l-1.4,10.34h-1.52l-.99-7.02-1.02,7.02Z"/>
          <path class="st15" d="M136.22,205.13c0-1.58.78-2.6,2.36-2.6s2.38,1.02,2.38,2.6v5.35c0,1.57-.78,2.6-2.38,2.6s-2.36-1.03-2.36-2.6v-5.35ZM137.36,210.54c0,.95.4,1.49,1.23,1.49s1.23-.55,1.23-1.49v-5.46c0-.93-.38-1.49-1.23-1.49s-1.23.56-1.23,1.49v5.46Z"/>
          <path class="st15" d="M144.35,202.64c1.62,0,2.3.83,2.3,2.36v.84c0,1.14-.4,1.85-1.28,2.13.95.28,1.3,1.05,1.3,2.16v1.61c0,.46.01.89.21,1.24h-1.17c-.13-.3-.19-.56-.19-1.26v-1.62c0-1.17-.55-1.54-1.51-1.54h-.81v4.42h-1.15v-10.34h2.3ZM144.06,207.51c.92,0,1.46-.3,1.46-1.42v-.99c0-.93-.34-1.42-1.2-1.42h-1.12v3.83h.86Z"/>
          <path class="st15" d="M150.29,202.64c1.61,0,2.35.97,2.35,2.57v5.21c0,1.58-.74,2.56-2.35,2.56h-2.42v-10.34h2.42ZM150.27,211.93c.83,0,1.23-.52,1.23-1.46v-5.32c0-.95-.4-1.46-1.24-1.46h-1.24v8.24h1.26Z"/>
        </g>
        <g>
          <path class="st15" d="M125.08,252.89c1.62,0,2.3.83,2.3,2.36v.84c0,1.14-.4,1.85-1.28,2.13.95.28,1.3,1.05,1.3,2.16v1.61c0,.46.01.89.21,1.24h-1.17c-.13-.3-.19-.56-.19-1.26v-1.62c0-1.17-.55-1.54-1.51-1.54h-.81v4.42h-1.15v-10.34h2.3ZM124.79,257.77c.92,0,1.46-.3,1.46-1.42v-.99c0-.93-.34-1.42-1.2-1.42h-1.12v3.83h.86Z"/>
          <path class="st15" d="M132.27,257.47v1.03h-2.53v3.68h3.1v1.05h-4.25v-10.34h4.25v1.05h-3.1v3.53h2.53Z"/>
          <path class="st15" d="M137.72,263.22h-1.11l-1.71-8.23v8.24h-1v-10.34h1.61l1.7,8.26,1.64-8.26h1.61v10.34h-1.09v-8.32l-1.64,8.3Z"/>
          <path class="st15" d="M145.31,257.47v1.03h-2.53v3.68h3.1v1.05h-4.25v-10.34h4.25v1.05h-3.1v3.53h2.53Z"/>
          <path class="st15" d="M150.75,263.22h-1.11l-1.71-8.23v8.24h-1v-10.34h1.61l1.7,8.26,1.64-8.26h1.61v10.34h-1.09v-8.32l-1.64,8.3Z"/>
          <path class="st15" d="M156.98,252.89c1.61,0,2.25.77,2.25,2.29v.49c0,1.09-.31,1.77-1.21,2.05,1,.28,1.39,1.08,1.39,2.21v.87c0,1.55-.75,2.42-2.36,2.42h-2.38v-10.34h2.32ZM156.7,257.28c.92,0,1.39-.3,1.39-1.37v-.61c0-.92-.31-1.36-1.14-1.36h-1.14v3.34h.89ZM157.04,262.18c.84,0,1.23-.44,1.23-1.4v-.92c0-1.15-.46-1.54-1.45-1.54h-1v3.85h1.23Z"/>
          <path class="st15" d="M164.13,257.47v1.03h-2.53v3.68h3.1v1.05h-4.25v-10.34h4.25v1.05h-3.1v3.53h2.53Z"/>
          <path class="st15" d="M168.07,252.89c1.62,0,2.3.83,2.3,2.36v.84c0,1.14-.4,1.85-1.28,2.13.95.28,1.3,1.05,1.3,2.16v1.61c0,.46.01.89.21,1.24h-1.17c-.13-.3-.19-.56-.19-1.26v-1.62c0-1.17-.55-1.54-1.51-1.54h-.81v4.42h-1.15v-10.34h2.3ZM167.77,257.77c.92,0,1.46-.3,1.46-1.42v-.99c0-.93-.34-1.42-1.2-1.42h-1.12v3.83h.86Z"/>
          <path class="st15" d="M175.39,263.22h-1.11l-1.71-8.23v8.24h-1v-10.34h1.61l1.7,8.26,1.64-8.26h1.61v10.34h-1.09v-8.32l-1.64,8.3Z"/>
          <path class="st15" d="M182.98,257.47v1.03h-2.53v3.68h3.1v1.05h-4.25v-10.34h4.25v1.05h-3.1v3.53h2.53Z"/>
        </g>
        <rect class="st8" x="108.83" y="288.25" width="108.25" height="22.49" rx="3.33" ry="3.33"/>
        <text class="st13" transform="translate(140.04 304.71)"><tspan x="0" y="0">submit</tspan></text>
        <rect class="st9" x="105.32" y="166.65" width="111.06" height="16.87"/>
        <rect class="st9" x="105.32" y="219.02" width="111.06" height="16.87"/>
        <rect class="st9" x="106.72" y="252.41" width="9.84" height="9.84"/>
      </g>
    </g>
    <text/>
    <g>
      <path class="st15" d="M125.86,126.08c-.67,0-1.25-.12-1.73-.37s-.84-.61-1.1-1.08-.38-1.04-.38-1.71v-.69l2.17-.02v.69c0,.32.09.58.27.76s.43.28.76.28.56-.09.73-.27.26-.43.26-.75v-1.12c0-.26-.08-.48-.23-.66s-.36-.34-.62-.48-.54-.29-.83-.44c-.29-.15-.58-.31-.87-.49s-.57-.4-.81-.65-.44-.57-.59-.94-.22-.81-.22-1.34v-.66c0-.98.28-1.75.83-2.29s1.33-.82,2.34-.82,1.74.28,2.29.83.83,1.32.83,2.32v.72l-2.17.03v-.73c0-.33-.08-.58-.25-.77s-.4-.28-.7-.28c-.32,0-.56.08-.73.25s-.26.4-.26.69v.85c0,.3.09.54.27.73s.41.36.69.5.58.3.9.47c.28.14.55.29.82.46s.52.36.75.6.41.52.54.87.21.77.21,1.28v1.06c0,1-.28,1.77-.83,2.32s-1.33.83-2.33.83Z"/>
      <path class="st15" d="M132.42,113.17v12.78h-2.18v-12.78h2.18Z"/>
      <path class="st15" d="M136.98,119.05h3.21v3.82c0,.67-.12,1.25-.37,1.73s-.61.84-1.08,1.1-1.04.38-1.71.38-1.25-.12-1.73-.37-.85-.6-1.1-1.07-.38-1.03-.38-1.68v-6.63c0-.69.12-1.28.37-1.78s.61-.87,1.09-1.13,1.04-.39,1.71-.39,1.22.13,1.68.38.82.62,1.06,1.09.37,1.05.37,1.73v.98h-2.24v-.98c0-.31-.08-.55-.24-.73s-.37-.26-.63-.26c-.29,0-.52.1-.69.29s-.25.46-.25.8v6.63c0,.28.09.5.27.66s.42.25.73.25.57-.09.76-.26.27-.41.27-.72v-1.75h-1.07v-2.09Z"/>
      <path class="st15" d="M141.58,125.94v-12.77h1.71l3.01,8.53-.24.34v-8.87h1.99v12.77h-1.73l-2.97-8.03.23-.35v8.38h-2Z"/>
      <path class="st15" d="M156.14,126.08c-.96,0-1.7-.28-2.24-.85s-.81-1.36-.81-2.38v-9.69h2.19v9.75c0,.31.08.55.23.73s.36.26.63.26.49-.09.65-.26.23-.41.23-.73v-9.75h2.19v9.69c0,1.02-.27,1.81-.81,2.38s-1.29.85-2.25.85Z"/>
      <path class="st15" d="M160.46,125.95v-12.78h2.18v12.78h-2.18ZM161.48,120.99v-2.09h2.26c.27,0,.48-.09.63-.28s.23-.44.23-.77v-1.5c0-.35-.07-.61-.22-.8s-.36-.29-.64-.29h-2.26v-2.09h2.32c.64,0,1.18.11,1.63.33s.79.55,1.02.98.36.95.36,1.56v2.15c0,.59-.12,1.1-.36,1.52s-.58.74-1.03.96-.99.33-1.62.33h-2.32Z"/>
      <path class="st15" d="M171.94,125.94v-12.77h1.71l3.01,8.53-.24.34v-8.87h1.99v12.77h-1.73l-2.97-8.03.23-.35v8.38h-2Z"/>
      <path class="st15" d="M183.25,126.08c-.69,0-1.27-.12-1.76-.36s-.86-.58-1.12-1.03-.39-.99-.39-1.62v-7.03c0-.64.13-1.18.39-1.63s.63-.79,1.12-1.02,1.08-.35,1.76-.35,1.27.12,1.76.35.86.58,1.12,1.02.39.99.39,1.63v7.03c0,.63-.13,1.17-.39,1.62s-.63.79-1.12,1.03-1.08.36-1.76.36ZM183.25,123.9c.34,0,.6-.1.79-.29s.28-.47.28-.82v-6.49c0-.35-.09-.62-.28-.81s-.45-.29-.79-.29-.59.1-.78.29-.28.46-.28.81v6.49c0,.35.09.62.28.82s.44.29.78.29Z"/>
      <path class="st15" d="M190.15,122.04l1.38-8.87h1.69l1.38,8.87.64-8.87h2.21l-1.63,12.78h-2.09l-1.3-8.26-1.4,8.26h-2.09l-1.64-12.78h2.21l.64,8.87Z"/>
    </g>
  </g>
  <g id="Character">
    <g>
      <path class="st9" d="M320.97,390.66s-6.02,1.16-13.89-.23c-7.87-1.39-16.2-8.1-16.2-8.1l-6.71.46v-29.17s11.57-2.08,15.28-1.85c3.7.23,21.53,17.83,21.53,17.83v21.07Z"/>
      <g>
        <polygon class="st6" points="290.74 393.75 269.25 393.75 265.64 351.15 294.35 351.15 290.74 393.75"/>
        <rect class="st9" x="266.97" y="344" width="26.73" height="2.35"/>
        <rect class="st9" x="264.72" y="345.91" width="30.56" height="8.33"/>
      </g>
      <path class="st9" d="M308.47,383.95c-10.65-1.16-11.81-12.73-11.81-12.73,0,0-8.1,5.56-11.57,5.56s-4.4-2.55-5.09-4.32,15.51-12.35,15.51-12.35c0,0,3.01-3.01,5.56-3.01s13.43,14.82,15.51,17.36"/>
      <polygon class="st8" points="442.64 414.75 441.8 319.61 437.56 344.22 439.24 414.75 442.64 414.75"/>
      <g>
        <path class="st5" d="M435.95,414.75l.55-51.74s8.09-16.48,8.7-24.2c.62-7.72,4.94-26.55.93-35.19-4.01-8.64-.49-37.9-.49-37.9l-3.75-13.34c-2.47-6.48-26.24-21.61-35.19-24.69-8.95-3.09-19.45-3.7-27.47-2.78-8.03.93-12.35,5.56-13.27,7.1s-5.86,16.36-11.73,24.38c-5.86,8.03-10.8,13.89-15.12,20.06-4.32,6.17-7.1,18.83-9.88,26.24-2.78,7.41-7.41,40.43-9.57,58.03-1.9,15.5-.69,46.78-.38,54.02h116.67Z"/>
        <path class="st0" d="M351.22,282.66c3.04-3.03,6.68-6.18,10.42-8.36,9.57-5.56,16.36-10.49,16.36-10.49l-1.85-10.8,9.88,4.63s2.16-6.79,8.33-18.52c6.17-11.73,6.48-14.2,6.48-14.2"/>
        <path class="st0" d="M343.19,291.81s2.53-3.41,6.35-7.44"/>
      </g>
      <polygon class="st8" points="386.23 278.89 371.81 414.64 376.9 414.64 389.62 283.13 386.23 278.89"/>
      <path class="st9" d="M329.47,414.75c-.29-12.6-1.17-64.79,3.16-84.27,4.94-22.22,9.26-47.23,16.67-57.72,7.41-10.49,22.53-23.77,30.56-31.48,8.03-7.72,12.04-17.9,12.04-17.9l-11.11-29.94s-9.88,16.67-12.96,17.9c0,0,3.09,13.89.93,21.91-2.16,8.03-16.36,30.87-20.68,36.42-4.32,5.56-17.59,36.11-20.37,56.49-2.45,17.97-2.74,75.32-2.77,88.59h4.56Z"/>
      <polygon class="st8" points="368.72 216.38 384.32 216.05 379.01 204.44 368.72 216.38"/>
      <path class="st6" d="M329.47,414.75c-.29-12.6-1.17-64.79,3.16-84.27,4.94-22.22,9.26-47.23,16.67-57.72,7.41-10.49,22.53-23.77,30.56-31.48,2.76-2.66,5.05-5.6,6.86-8.33-8.81,6-15.82,6.19-19.96,5.42-4.64,10.06-15.09,26.68-18.69,31.31-4.32,5.56-17.59,36.11-20.37,56.49-2.45,17.97-2.74,75.32-2.77,88.59h4.56Z"/>
      <path class="st8" d="M368.01,214.16s3.04,11.47,2.7,16.52c-.34,5.06-4.72,19.56-10.12,27.32-5.4,7.76-14.16,19.56-21.25,22.59-7.08,3.04-9.78,3.04-9.78,3.04,0,0,13.83-5.73,16.52-22.59,2.7-16.86-6.07-57.67-6.41-60.37-.34-2.7,28.33,13.49,28.33,13.49Z"/>
      <g>
        <path class="st9" d="M329.22,167.45s-.67,13.35.67,15.68c1.33,2.34,5.01,4,5.01,8.01s-3.34,11.35-1.67,13.68,7.68,2.34,7.68,2.34c0,0,9.01,10.34,11.35,12.68s5.67,6.01,7.34,5.34c1.67-.67,14.35-13.68,17.35-18.69,3-5.01,4.67-22.69,3.34-30.37-1.33-7.67-20.02-20.36-30.37-21.02-10.34-.67-19.69,2-19.69,2l-1,10.34Z"/>
        <polyline class="st0" points="340.9 182.47 343.01 188.07 350.81 183.25"/>
        <path class="st0" d="M337.13,180.27s-2.12-7.94,9.53-5.83"/>
        <path class="st0" d="M345.24,208.49s5.67-1.67,10.01-8.68"/>
        <path class="st15" d="M346.83,186.77c.32.61-.13,1.48-1.01,1.95-.88.47-1.86.37-2.19-.24-.32-.61.13-1.48,1.01-1.95.88-.47,1.86-.37,2.19.24Z"/>
      </g>
      <g>
        <path class="st8" d="M336.56,137.08s-21.69,14.02-20.02,18.69c1.67,4.67,12.68,11.68,12.68,11.68l1-7.34s11.35,5.67,22.02,9.68l10.68,4s3.67,4,5.01,5.01c1.33,1,6.01,1,6.01,1,0,0,1.67,35.71,8.01,44.05,6.34,8.34,24.69,16.02,37.04,21.36,12.35,5.34,17.79,5.76,21.12,10.43,3.34,4.67,4.63,19.51,4.63,19.51,0,0,20.18-20.84-8.4-70.32-20.73-35.9-18.35-40.04-25.36-52.06-7.01-12.01-24.03-29.7-40.71-31.03-16.68-1.33-33.7,15.35-33.7,15.35Z"/>
        <path class="st4" d="M416.19,221.9c2.24,1.2,4.61,2.3,7.12,3.28"/>
        <path class="st4" d="M364.11,134.96s16.35,12.41,19.17,34.96c2.23,17.83,9.74,35.65,25.6,47.36"/>
        <path class="st4" d="M354.69,152.49c4.64,1.47,8.96,3.23,12.24,5.03"/>
        <path class="st4" d="M325.2,156.95s-5.64-2.26.56-6.77c3.68-2.67,13.5-1.78,23.23.68"/>
        <path class="st4" d="M373.93,176.79s-2.67-22.36-9.01-31.03"/>
      </g>
      <g>
        <g>
          <path class="st8" d="M259.16,325.54l-23.91-18.28c-.86-.66-.5-2.03.58-2.18l12.56-1.7c1.75-.24,3.52.25,4.91,1.34l24.38,19.27-18.52,1.54Z"/>
          <g>
            <g>
              <path class="st9" d="M307.62,326.77s-5.56-4.94-7.41-7.72c-1.85-2.78-5.86-4.32-9.26-3.7-3.4.62-11.11-1.23-12.35.31-1.23,1.54-1.23,5.56-1.23,5.56,0,0-19.14,1.23-20.68.93s-2.78,2.16-1.54,4.32c1.23,2.16,10.2,4.55,10.2,4.55h0c0,1.74.39,3.45,1.15,5.01,1.32,2.69,3.51,6.84,5.32,8.65,2.78,2.78,8.64,4.01,14.82,5.25,6.17,1.23,16.05-.31,16.05-.31l4.94-22.84Z"/>
              <line class="st0" x1="277.37" y1="321.21" x2="291.88" y2="320.29"/>
            </g>
            <path class="st0" d="M265.35,331.02s6.1-.34,10.17.34c4.07.68,7.46,1.36,9.83.68"/>
            <path class="st0" d="M266.5,336.03s5.97,1.09,8.68,2.11c2.71,1.02,7.12,3.73,11.52,2.37"/>
            <path class="st0" d="M270.77,342.88s7.46,3.39,13.22,3.05"/>
          </g>
        </g>
        <g>
          <path class="st5" d="M438.49,266.27s1.23,14.51,1.23,25-1.23,31.79-8.33,46.3c-7.1,14.51-5.25,24.69-12.35,39.2-7.1,14.51-12.04,14.82-32.41,12.96-20.37-1.85-43.52-9.57-44.76-9.57s-19.45-3.4-28.09-7.72c-8.64-4.32-16.98-10.19-16.98-10.19,0,0,.31-3.7,1.85-7.41,1.54-3.7,6.48-30.56,6.48-30.56,0,0,9.26,5.56,17.9,8.33,8.64,2.78,16.67,4.01,16.67,4.01,0,0,5.86-3.7,7.72-4.32,1.85-.62,5.56,3.7,10.8,4.94,5.25,1.23,13.27,2.47,14.51,2.47s13.85-1.5,12.96-1.23c-1.13.34-2.18-2.03-1.85-4.01.18-1.1,3.09-8.03,4.01-9.26.93-1.23.93-5.86.93-8.95s-4.32-35.5-2.16-44.45,15.12-27.47,15.12-27.47c0,0,.57-2.79,7.41-2.78,6.84.02,17.9,7.41,22.53,11.42"/>
          <path class="st0" d="M431.01,283.81c-2.3-2.26-5.34-4.77-8.54-6.05-6.64-2.65-11.94-.66-11.94-.66"/>
          <path class="st0" d="M435.08,288.38s-.92-1.23-2.44-2.88"/>
          <path class="st0" d="M304.67,358.9c0,.99-.81,1.8-1.8,1.8s-1.8-.81-1.8-1.8.81-1.8,1.8-1.8,1.8.81,1.8,1.8Z"/>
          <path class="st0" d="M398.57,350.5c1.65,1.68,3.04,2.97,3.81,3.43"/>
          <path class="st0" d="M386.33,336.96s5.49,6.4,10.17,11.39"/>
          <path class="st0" d="M365.82,353.97c1.16,1.7,2.27,3.2,3.23,4.28"/>
          <path class="st0" d="M356.08,337.88s3.95,7.18,7.93,13.36"/>
          <path class="st0" d="M315.35,355.8c-1.27,5.96-2.69,11.34-4.03,13.57"/>
          <path class="st0" d="M319.35,332.94s-1.25,8.73-2.98,17.77"/>
        </g>
      </g>
    </g>
  </g>
  <g id="Line">
    <g>
      <line class="st0" x1="79.78" y1="414.75" x2="9.78" y2="414.75"/>
      <line class="st0" x1="460.16" y1="414.75" x2="89.78" y2="414.75"/>
    </g>
  </g>
</svg>